<?xml version="1.0" encoding="utf-8"?>
<!-- Generator: Adobe Illustrator 27.5.0, SVG Export Plug-In . SVG Version: 6.00 Build 0)  -->
<svg version="1.1" xmlns="http://www.w3.org/2000/svg" xmlns:xlink="http://www.w3.org/1999/xlink" x="0px" y="0px"
	 viewBox="0 0 500 500" style="enable-background:new 0 0 500 500;" xml:space="preserve">
<g id="Floor">
	<ellipse id="Floor_4_" style="fill:#F5F5F5;" cx="254.003" cy="352.649" rx="222.461" ry="128.438"/>
</g>
<g id="Shadow">
	<path id="Shadow_1_" style="fill:#E0E0E0;" d="M240.074,458.12L442.64,341.168c2.391-1.381,2.391-3.619,0-5l-166.008-95.845
		c-2.392-1.381-6.269-1.381-8.66,0L65.406,357.274c-2.392,1.381-2.392,3.619,0,5l166.008,95.845
		C233.806,459.5,237.683,459.5,240.074,458.12z"/>
</g>
<g id="Plants">
	<g id="Plants_1_">
		<g id="XMLID_2243_">
			<path id="XMLID_2244_" style="fill:#27DEBF;" d="M79.761,322.789c-0.67-8.329-4.483-22.009-14.167-35.028
				c-10.364-13.932-22.999-22.651-32.386-18.573c-8.743,3.798-5.428,15.863,9.618,27.766c10.557,8.353,21.506,19.219,27.389,32.344
				l9.546,16.7V322.789z"/>
		</g>
		<g id="XMLID_2241_" style="opacity:0.2;">
			<path id="XMLID_2242_" d="M79.761,322.789c-0.67-8.329-4.483-22.009-14.167-35.028c-10.364-13.932-22.999-22.651-32.386-18.573
				c-8.743,3.798-5.428,15.863,9.618,27.766c10.557,8.353,21.506,19.219,27.389,32.344l9.546,16.7V322.789z"/>
		</g>
		<g id="XMLID_2234_">
			<path id="XMLID_2239_" style="fill:#FFFFFF;" d="M78.916,329.138c-0.242,0-0.469-0.149-0.556-0.39
				c-8.387-23.091-25.85-46.456-40.622-54.349c-0.289-0.155-0.398-0.513-0.244-0.801c0.156-0.29,0.513-0.397,0.801-0.244
				c15.001,8.016,32.702,31.656,41.177,54.989c0.112,0.307-0.046,0.647-0.354,0.758C79.051,329.126,78.983,329.138,78.916,329.138z"
				/>
		</g>
		<g id="XMLID_1933_">
			<path id="XMLID_2233_" style="fill:#27DEBF;" d="M83.408,362.49c0,0-6.182,5.489-16.71,7.156
				c-10.528,1.667-15.174-3.368-15.174-3.368s4.146-9.874,10.125-12.645c0,0-10.137,2.066-18.273,7.495c0,0-6.429,0.097-8.988-9.714
				c0,0,3.809-5.905,16.589-9.095c0,0-7.775-1.957-18.979,0.901c-0.84,0.334-4.422-12.353-5.505-18.205
				c-1.083-5.853,1.269-5.791,5.832-7.009c4.563-1.218,20.1-1.984,22.957,0.525c2.856,2.51,4.308,11.091,4.308,11.091
				s0.943-6.008,0.288-10.341c0,0,6.371-0.403,11.497,1.384c5.126,1.787,4.8,4.285,4.8,8.015c0,3.988-0.394,6.637-1.535,11.106
				c0,0,3.54-3.063,3.665-14.353c0,0,6.928,5.929,9.71,11.025S90.089,354.885,83.408,362.49z"/>
			<g id="XMLID_2229_">
				<path id="XMLID_2231_" style="fill:#FFFFFF;" d="M83.408,363.082c-0.22,0-0.399-0.142-0.533-0.335
					c-12.122-17.439-40.082-38.161-51.397-40.361c-0.32-0.062-0.531-0.373-0.468-0.695c0.062-0.322,0.377-0.527,0.695-0.468
					c11.501,2.237,40.284,22.56,52.236,41.011c0.178,0.275,0.019,0.649-0.276,0.79C83.581,363.063,83.494,363.082,83.408,363.082z"
					/>
			</g>
		</g>
	</g>
	<g id="Plants_18_">
		<g id="XMLID_2094_">
			<g id="XMLID_2225_">
				<path id="XMLID_2226_" style="fill:#27DEBF;" d="M413.209,314.622l-8.71-4.976c0,0-4.178-23.022-1.053-42.813
					c4.393-27.824,23.338-37.421,30.218-34.656c6.88,2.766,8.498,11.008-3.928,27.085
					C422.403,268.749,412.973,288.8,413.209,314.622z"/>
			</g>
			<g id="XMLID_2227_" style="opacity:0.2;">
				<path id="XMLID_2228_" d="M413.209,314.622l-8.71-4.976c0,0-4.178-23.022-1.053-42.813
					c4.393-27.824,23.338-37.421,30.218-34.656c6.88,2.766,8.498,11.008-3.928,27.085
					C422.403,268.749,412.973,288.8,413.209,314.622z"/>
			</g>
			<g id="XMLID_2223_">
				<path id="XMLID_2224_" style="fill:#FFFFFF;" d="M410.051,303.572c0.029,0,0.057-0.002,0.086-0.006
					c0.34-0.047,0.577-0.36,0.53-0.7c-3.6-26.049,6.876-54.589,18.646-66.091c0.245-0.239,0.25-0.633,0.01-0.878
					c-0.24-0.243-0.633-0.25-0.878-0.01c-11.985,11.712-22.661,40.716-19.007,67.149
					C409.48,303.346,409.747,303.572,410.051,303.572z"/>
			</g>
		</g>
		<g id="XMLID_1407_">
			<g id="XMLID_1941_">
				<path id="XMLID_1943_" style="fill:#27DEBF;" d="M437.375,328.584c1.376,0.79,4.213-0.938,5.299-1.667
					c1.86-1.248,3.367-3.015,4.368-5.014c1.165-2.326,1.458-4.819,1.094-7.392c-0.189-1.335-0.563-2.635-0.935-3.931
					c-0.366-1.272-0.731-2.544-1.097-3.816c-0.361-1.255-0.725-2.553-0.559-3.848c0.334-2.609,2.65-4.438,4.756-6.014
					c2.329-1.744,4.754-4.045,4.74-7.187c-0.01-2.424-1.266-4.675-2.768-6.577c-1.502-1.902-3.285-3.583-4.642-5.591
					c-0.977-1.446-1.74-3.144-1.581-4.882c0.099-1.08,0.546-2.097,1.063-3.05c1.109-2.045,2.573-3.919,3.338-6.117
					c0.765-2.198,0.656-4.931-1.059-6.503c-1.408-1.291-3.5-1.471-5.406-1.345c-1.763,0.116-3.485,0.912-5.028,1.77
					c-4.987,2.773-7.834,8.68-13.126,10.814c-2.041,0.823-4.278,1.003-6.406,1.566c-2.128,0.562-4.297,1.649-5.283,3.617
					c-1.943,3.88,1.663,8.663,0.297,12.782c-1.208,3.645-4.751,5.04-6.74,8.325c-0.87,1.437-1.07,3.098-0.93,4.772
					c0.238,2.833,0.652,4.913,2.012,8.064c1.124,2.604,4.426,7.264,4.426,7.264C413.291,314.704,437.164,328.462,437.375,328.584z"
					/>
			</g>
			<g id="XMLID_1410_">
				<path id="XMLID_1412_" style="fill:#FFFFFF;" d="M423.236,321.05h0.017c0.352-0.014,0.617-0.304,0.604-0.646
					c-1.026-24.656,10.591-51.876,19.039-59.784c0.25-0.234,0.263-0.627,0.029-0.878c-0.235-0.25-0.627-0.262-0.878-0.029
					c-8.618,8.067-20.471,35.739-19.432,60.742C422.629,320.789,422.905,321.05,423.236,321.05z"/>
			</g>
			<g id="XMLID_3068_">
				<path id="XMLID_1409_" style="fill:#FFFFFF;" d="M426.93,291.921c0.061,0,0.122-0.008,0.183-0.028
					c7.922-2.449,17.795-2.881,17.893-2.884c0.343-0.015,0.609-0.305,0.596-0.647c-0.015-0.342-0.274-0.612-0.647-0.595
					c-0.101,0.005-10.13,0.443-18.208,2.94c-0.327,0.101-0.512,0.449-0.41,0.776C426.419,291.75,426.664,291.921,426.93,291.921z"/>
			</g>
		</g>
	</g>
</g>
<g id="Device">
	<g id="Laptop_1_">
		<path id="XMLID_2311_" style="fill:#37474F;" d="M82.296,359.186c0,3.052,2.285,6.846,5.103,8.473l142.966,82.541
			c2.818,1.627,7.387,1.627,10.205,0l195.617-112.939c2.818-1.627,5.103-5.421,5.103-8.473c0-3.053-2.284-6.846-5.102-8.473
			L293.22,237.774c-2.818-1.627-7.387-1.627-10.205,0L87.398,350.714C84.58,352.34,82.296,356.134,82.296,359.186z"/>
		<path id="XMLID_2310_" style="fill:#263238;" d="M235.469,440.376v11.041c-1.85,0-3.7-0.401-5.102-1.214L87.397,367.66
			c-2.816-1.626-5.102-5.421-5.102-8.472c0-2.863,2.015-6.375,4.584-8.142c-2.286,1.638-2.109,4.042,0.519,5.562l142.971,82.544
			C231.77,439.964,233.62,440.376,235.469,440.376z"/>
		<path id="XMLID_2309_" style="fill:#455A64;" d="M77.51,350.896c-2.643-1.526-4.786-5.401-4.786-8.655l-0.001-170.609
			c0-3.254,2.285-7.211,5.102-8.838L273.442,49.855c2.818-1.627,7.246-1.709,9.889-0.182c2.644,1.526,4.787,5.401,4.787,8.655
			v170.609c0,3.254-2.285,7.211-5.102,8.838L87.398,350.714C84.58,352.34,80.153,352.422,77.51,350.896z"/>
		<path id="XMLID_2308_" style="fill:#263238;" d="M86.796,351.021c-2.816,1.32-6.823,1.296-9.285-0.13
			c-2.64-1.52-4.784-5.397-4.784-8.649V171.627c0-1.626,0.566-3.429,1.497-5.02l9.568,5.515v0.012
			c-0.919,1.603-1.497,3.394-1.497,5.02v170.615C82.294,350.785,84.262,352.141,86.796,351.021z"/>
		<path id="XMLID_2307_" style="fill:#37474F;" d="M82.296,177.159v170.609c0,3.254,2.285,4.573,5.103,2.946l195.618-112.939
			c2.818-1.627,5.102-5.584,5.102-8.838V58.328c0-3.254-2.285-4.573-5.102-2.946L87.398,168.321
			C84.58,169.948,82.296,173.905,82.296,177.159z"/>
		<path id="XMLID_2306_" style="fill:#455A64;" d="M87.398,356.605l142.967,82.541c2.818,1.627,7.387,1.627,10.205,0l195.617-112.94
			c2.818-1.627,2.818-4.265,0-5.892L293.22,237.774c-2.818-1.627-7.387-1.627-10.205,0L87.398,350.714
			C84.58,352.34,84.58,354.978,87.398,356.605z"/>
		<path id="XMLID_2305_" style="fill:#27DEBF;" d="M90.143,177.79l188.6-108.86c1.691-0.976,3.061-0.185,3.061,1.768v147.688
			c0,1.952-1.371,4.327-3.061,5.303l-188.6,108.858c-1.691,0.976-3.062,0.185-3.062-1.768V183.092
			C87.081,181.14,88.452,178.766,90.143,177.79z"/>
		<path id="XMLID_2197_" style="opacity:0.9;fill:#FFFFFF;" d="M90.143,177.79l188.6-108.86c1.691-0.976,3.061-0.185,3.061,1.768
			v147.688c0,1.952-1.371,4.327-3.061,5.303l-188.6,108.858c-1.691,0.976-3.062,0.185-3.062-1.768V183.092
			C87.081,181.14,88.452,178.766,90.143,177.79z"/>
		<path id="XMLID_2304_" style="fill:#37474F;" d="M103.993,352.187l181.575-104.831c1.409-0.814,3.693-0.814,5.103,0l9.287,5.362
			c1.409,0.814,1.409,2.132,0,2.946L118.355,360.478c-1.409,0.813-3.694,0.813-5.103,0l-9.26-5.345
			C102.584,354.32,102.584,353.001,103.993,352.187z"/>
		<path id="XMLID_2296_" style="fill:#263238;" d="M127.928,366.005l180.217-104.023c1.409-0.814,3.693-0.814,5.102,0l57.123,32.981
			c1.409,0.813,1.409,2.132,0,2.946L190.361,401.787c-1.409,0.813-3.696,0.817-5.107,0.008l-57.321-32.852
			C126.521,368.134,126.519,366.818,127.928,366.005z"/>
		<path id="XMLID_1428_" style="fill:#455A64;" d="M290.691,308.337l5.685-3.282c0.242-0.14,0.227-0.374-0.032-0.524l-6.574-3.796
			c-0.259-0.15-0.665-0.158-0.907-0.018L283.178,304c-0.242,0.139-0.227,0.373,0.033,0.523l6.573,3.796
			C290.044,308.469,290.45,308.477,290.691,308.337z M279.473,295.296l-5.685,3.282c-0.241,0.14-0.227,0.374,0.032,0.524
			l6.574,3.796c0.259,0.15,0.666,0.158,0.907,0.019l5.685-3.283c0.242-0.139,0.228-0.374-0.032-0.523l-6.574-3.796
			C280.12,295.164,279.714,295.156,279.473,295.296z M261.106,305.9l-9.621,5.555c-0.241,0.139-0.227,0.374,0.032,0.523l6.574,3.795
			c0.26,0.15,0.665,0.158,0.907,0.019l9.621-5.554c0.242-0.139,0.227-0.374-0.032-0.524l-6.574-3.796
			C261.753,305.769,261.347,305.76,261.106,305.9z M271.164,300.092l-5.685,3.283c-0.241,0.139-0.227,0.374,0.033,0.523l6.574,3.796
			c0.259,0.15,0.665,0.158,0.906,0.019l5.685-3.282c0.242-0.14,0.228-0.374-0.032-0.524l-6.574-3.795
			C271.812,299.961,271.405,299.953,271.164,300.092z M248.861,312.969l-5.685,3.282c-0.242,0.14-0.227,0.374,0.032,0.524
			l6.574,3.796c0.259,0.15,0.665,0.158,0.907,0.019l5.685-3.283c0.241-0.139,0.227-0.373-0.033-0.523l-6.573-3.796
			C249.508,312.838,249.102,312.83,248.861,312.969z M240.552,317.767l-5.685,3.282c-0.242,0.139-0.227,0.374,0.032,0.524
			l6.574,3.795c0.259,0.15,0.665,0.159,0.907,0.019l5.685-3.282c0.242-0.14,0.227-0.374-0.032-0.524l-6.574-3.795
			C241.199,317.636,240.793,317.627,240.552,317.767z M266.41,333.201l5.685-3.283c0.241-0.139,0.227-0.374-0.033-0.523
			l-6.573-3.795c-0.259-0.15-0.666-0.158-0.907-0.019l-5.685,3.282c-0.242,0.14-0.228,0.374,0.032,0.524l6.574,3.796
			C265.762,333.332,266.168,333.34,266.41,333.201z M258.101,337.997l5.685-3.282c0.242-0.14,0.227-0.374-0.033-0.524l-6.573-3.795
			c-0.259-0.15-0.665-0.158-0.907-0.019l-5.685,3.282c-0.242,0.139-0.227,0.374,0.032,0.523l6.574,3.796
			C257.453,338.129,257.859,338.137,258.101,337.997z M249.792,342.795l5.685-3.283c0.242-0.139,0.227-0.373-0.032-0.523
			l-6.574-3.796c-0.259-0.15-0.665-0.158-0.907-0.019l-5.685,3.282c-0.242,0.14-0.227,0.374,0.033,0.524l6.574,3.796
			C249.144,342.926,249.55,342.934,249.792,342.795z M241.482,347.592l5.685-3.282c0.242-0.139,0.227-0.374-0.033-0.524
			l-6.574-3.795c-0.259-0.15-0.665-0.158-0.907-0.019l-5.685,3.282c-0.242,0.139-0.227,0.374,0.032,0.524l6.574,3.795
			C240.835,347.723,241.241,347.732,241.482,347.592z M282.383,313.135l5.685-3.283c0.241-0.139,0.227-0.374-0.032-0.523
			l-6.574-3.796c-0.259-0.15-0.665-0.158-0.906-0.019l-5.685,3.282c-0.242,0.14-0.228,0.374,0.032,0.524l6.574,3.796
			C281.735,313.266,282.141,313.274,282.383,313.135z M274.719,328.403l12.682-7.322c0.242-0.14,0.227-0.374-0.033-0.524
			l-15.965-9.217c-0.259-0.15-0.665-0.158-0.907-0.018l-6.559,3.787c-0.242,0.14-0.227,0.374,0.032,0.524l8.453,4.88
			c0.259,0.149,0.273,0.384,0.032,0.523l-5.247,3.03c-0.242,0.139-0.227,0.374,0.032,0.523l6.574,3.796
			C274.071,328.535,274.477,328.543,274.719,328.403z M232.243,322.564l-5.685,3.283c-0.241,0.139-0.227,0.374,0.033,0.523
			l6.574,3.796c0.259,0.15,0.665,0.158,0.907,0.018l5.685-3.282c0.241-0.14,0.227-0.374-0.033-0.524l-6.574-3.795
			C232.89,322.432,232.485,322.424,232.243,322.564z M223.934,327.361l-5.685,3.282c-0.242,0.14-0.227,0.374,0.032,0.524
			l6.574,3.796c0.259,0.15,0.665,0.158,0.907,0.018l5.685-3.282c0.242-0.139,0.227-0.374-0.032-0.523l-6.574-3.796
			C224.581,327.23,224.175,327.222,223.934,327.361z M182.413,381.154c0.259,0.15,0.665,0.158,0.907,0.018l5.685-3.283
			c0.241-0.139,0.227-0.374-0.032-0.524l-6.574-3.795c-0.259-0.15-0.666-0.158-0.907-0.018l-5.685,3.282
			c-0.242,0.14-0.227,0.374,0.032,0.524L182.413,381.154z M157.462,365.738l-5.685,3.282c-0.242,0.139-0.227,0.374,0.032,0.524
			l6.574,3.795c0.26,0.15,0.665,0.159,0.907,0.019l5.685-3.282c0.242-0.139,0.227-0.374-0.033-0.524l-6.574-3.795
			C158.109,365.608,157.704,365.599,157.462,365.738z M170.835,376.994c0.259,0.15,0.665,0.158,0.907,0.019l5.685-3.283
			c0.241-0.139,0.227-0.374-0.033-0.523l-6.574-3.796c-0.26-0.15-0.665-0.158-0.907-0.019l-5.685,3.282
			c-0.242,0.14-0.227,0.374,0.032,0.524L170.835,376.994z M197.084,384.07l5.685-3.282c0.242-0.14,0.227-0.374-0.032-0.524
			l-6.574-3.796c-0.26-0.149-0.665-0.158-0.907-0.018l-5.685,3.282c-0.241,0.139-0.227,0.374,0.033,0.524l6.574,3.795
			C196.436,384.201,196.843,384.209,197.084,384.07z M187.868,388.848c0.259,0.15,0.665,0.158,0.906,0.019l5.685-3.283
			c0.242-0.139,0.227-0.373-0.032-0.523l-6.574-3.796c-0.259-0.15-0.665-0.158-0.907-0.019l-5.685,3.283
			c-0.241,0.139-0.227,0.373,0.032,0.523L187.868,388.848z M165.771,360.941l-5.685,3.282c-0.242,0.14-0.227,0.374,0.033,0.524
			l6.574,3.796c0.26,0.15,0.665,0.158,0.907,0.019l5.685-3.283c0.242-0.139,0.227-0.373-0.032-0.523l-6.574-3.796
			C166.419,360.81,166.012,360.802,165.771,360.941z M207.316,336.955l-5.685,3.282c-0.241,0.14-0.227,0.374,0.033,0.524
			l6.574,3.795c0.26,0.15,0.665,0.158,0.907,0.019l5.685-3.283c0.241-0.139,0.227-0.373-0.032-0.523l-6.574-3.796
			C207.963,336.824,207.557,336.816,207.316,336.955z M174.08,356.144l-5.685,3.282c-0.242,0.139-0.227,0.374,0.032,0.523
			l6.573,3.796c0.259,0.15,0.665,0.159,0.907,0.019l5.685-3.282c0.242-0.14,0.227-0.374-0.033-0.524l-6.574-3.796
			C174.728,356.013,174.322,356.004,174.08,356.144z M215.625,332.158l-5.685,3.283c-0.242,0.139-0.227,0.374,0.033,0.523
			l6.574,3.795c0.26,0.15,0.665,0.159,0.907,0.019l5.685-3.282c0.242-0.14,0.227-0.374-0.032-0.524l-6.574-3.796
			C216.272,332.027,215.866,332.019,215.625,332.158z M199.007,341.753l-5.685,3.282c-0.242,0.139-0.228,0.374,0.032,0.524
			l6.574,3.795c0.259,0.15,0.665,0.159,0.907,0.019l5.685-3.282c0.242-0.139,0.228-0.374-0.032-0.524l-6.574-3.795
			C199.655,341.622,199.248,341.613,199.007,341.753z M190.698,346.55l-5.685,3.283c-0.242,0.139-0.227,0.374,0.032,0.523
			l6.574,3.796c0.259,0.15,0.665,0.158,0.907,0.018l5.685-3.282c0.241-0.14,0.227-0.374-0.033-0.524l-6.574-3.795
			C191.346,346.418,190.939,346.41,190.698,346.55z M182.389,351.347l-5.685,3.282c-0.242,0.14-0.227,0.374,0.032,0.524l6.574,3.796
			c0.259,0.15,0.665,0.158,0.907,0.019l5.685-3.283c0.241-0.139,0.227-0.374-0.033-0.524l-6.574-3.795
			C183.036,351.216,182.631,351.208,182.389,351.347z M224.865,357.187l5.685-3.283c0.242-0.139,0.227-0.374-0.032-0.523
			l-6.574-3.796c-0.259-0.15-0.665-0.158-0.907-0.018l-5.685,3.282c-0.242,0.14-0.227,0.374,0.033,0.524l6.574,3.795
			C224.217,357.318,224.623,357.326,224.865,357.187z M297.84,284.691l-5.685,3.282c-0.242,0.139-0.227,0.374,0.032,0.523
			l6.574,3.795c0.259,0.15,0.665,0.158,0.907,0.019l5.685-3.282c0.242-0.14,0.227-0.374-0.032-0.524l-6.574-3.796
			C298.488,284.56,298.082,284.552,297.84,284.691z M287.782,290.498l-5.685,3.283c-0.242,0.139-0.227,0.373,0.032,0.523
			l6.573,3.796c0.26,0.15,0.665,0.158,0.907,0.018l5.685-3.282c0.242-0.14,0.227-0.374-0.032-0.524l-6.574-3.796
			C288.429,290.367,288.023,290.359,287.782,290.498z M306.149,279.894l-5.685,3.282c-0.242,0.139-0.227,0.374,0.032,0.524
			l6.574,3.795c0.259,0.15,0.665,0.158,0.906,0.019l5.685-3.282c0.241-0.14,0.227-0.374-0.032-0.524l-6.574-3.796
			C306.797,279.763,306.391,279.754,306.149,279.894z M263.141,324.244l5.685-3.282c0.242-0.14,0.227-0.374-0.033-0.524
			l-6.573-3.796c-0.26-0.15-0.665-0.158-0.907-0.018l-5.685,3.283c-0.242,0.139-0.227,0.374,0.032,0.523l6.574,3.796
			C262.493,324.375,262.899,324.383,263.141,324.244z M315.365,275.115c-0.259-0.15-0.665-0.158-0.907-0.019l-5.684,3.282
			c-0.241,0.14-0.227,0.374,0.032,0.524l6.574,3.796c0.259,0.15,0.665,0.158,0.906,0.019l5.685-3.283
			c0.242-0.139,0.228-0.373-0.032-0.523L315.365,275.115z M233.174,352.389l5.685-3.282c0.242-0.14,0.227-0.374-0.033-0.524
			l-6.574-3.796c-0.26-0.15-0.665-0.158-0.907-0.019l-5.685,3.283c-0.242,0.139-0.227,0.374,0.032,0.523l6.574,3.796
			C232.526,352.521,232.932,352.529,233.174,352.389z M335.068,293.56l5.685-3.282c0.242-0.139,0.227-0.374-0.032-0.524
			l-6.574-3.795c-0.259-0.15-0.665-0.158-0.907-0.019l-5.685,3.282c-0.241,0.139-0.227,0.374,0.032,0.524l6.574,3.795
			C334.42,293.691,334.826,293.7,335.068,293.56z M317.368,292.936l5.685-3.283c0.241-0.139,0.227-0.373-0.033-0.523l-6.574-3.796
			c-0.259-0.15-0.665-0.158-0.906-0.019l-5.685,3.282c-0.242,0.14-0.228,0.374,0.032,0.524l6.574,3.795
			C316.72,293.067,317.126,293.075,317.368,292.936z M324.756,280.537c-0.259-0.15-0.665-0.158-0.907-0.019l-5.685,3.283
			c-0.241,0.139-0.227,0.374,0.033,0.523l6.574,3.795c0.259,0.15,0.665,0.158,0.906,0.019l5.685-3.282
			c0.242-0.14,0.228-0.374-0.032-0.524L324.756,280.537z M326.505,279.528l15.965,9.217c0.259,0.15,0.665,0.158,0.907,0.018
			l5.685-3.282c0.242-0.14,0.227-0.374-0.032-0.524l-15.965-9.217c-0.26-0.15-0.665-0.158-0.907-0.018l-5.685,3.282
			C326.232,279.143,326.246,279.378,326.505,279.528z M307.231,290.113l-5.685,3.282c-0.242,0.139-0.227,0.374,0.032,0.524
			l6.574,3.795c0.26,0.15,0.665,0.159,0.907,0.019l5.685-3.282c0.241-0.14,0.227-0.374-0.032-0.524l-6.573-3.795
			C307.879,289.982,307.472,289.974,307.231,290.113z M244.695,326.218l-5.685,3.283c-0.242,0.139-0.227,0.374,0.032,0.523
			l6.574,3.796c0.26,0.15,0.665,0.158,0.907,0.019l5.685-3.282c0.242-0.14,0.227-0.374-0.033-0.524l-6.574-3.796
			C245.342,326.087,244.937,326.079,244.695,326.218z M325.852,298.339c0.259,0.15,0.665,0.158,0.907,0.019l5.685-3.282
			c0.241-0.14,0.227-0.374-0.033-0.524l-6.574-3.796c-0.259-0.15-0.665-0.158-0.906-0.019l-5.685,3.283
			c-0.242,0.139-0.227,0.374,0.032,0.523L325.852,298.339z M253.004,321.421l-5.685,3.282c-0.242,0.14-0.227,0.374,0.033,0.524
			l6.574,3.796c0.26,0.15,0.665,0.158,0.907,0.019l5.685-3.283c0.242-0.139,0.227-0.374-0.032-0.523l-6.573-3.796
			C253.652,321.29,253.246,321.282,253.004,321.421z M190.722,376.357c0.26,0.15,0.666,0.158,0.907,0.019l5.685-3.282
			c0.241-0.14,0.227-0.374-0.033-0.524l-6.574-3.796c-0.259-0.15-0.665-0.158-0.906-0.019l-5.685,3.283
			c-0.242,0.139-0.227,0.374,0.032,0.523L190.722,376.357z M178.223,364.596l-5.685,3.283c-0.241,0.139-0.227,0.374,0.033,0.523
			l6.574,3.795c0.26,0.15,0.665,0.158,0.907,0.019l5.685-3.282c0.242-0.14,0.227-0.374-0.032-0.524l-6.574-3.796
			C178.871,364.465,178.465,364.457,178.223,364.596z M199.937,371.578l5.685-3.282c0.242-0.139,0.228-0.374-0.032-0.524
			l-6.574-3.795c-0.259-0.15-0.665-0.159-0.907-0.019l-5.685,3.282c-0.241,0.139-0.227,0.374,0.033,0.524l6.574,3.795
			C199.29,371.709,199.696,371.718,199.937,371.578z M208.247,366.781l5.685-3.282c0.242-0.14,0.227-0.374-0.032-0.524l-6.574-3.796
			c-0.259-0.15-0.665-0.158-0.907-0.019l-5.685,3.282c-0.241,0.14-0.227,0.374,0.033,0.524l6.574,3.796
			C207.599,366.912,208.005,366.92,208.247,366.781z M216.555,361.983l5.685-3.282c0.241-0.14,0.227-0.374-0.032-0.524l-6.574-3.795
			c-0.259-0.149-0.665-0.158-0.907-0.018l-5.685,3.282c-0.242,0.139-0.227,0.374,0.032,0.523l6.574,3.796
			C215.908,362.115,216.314,362.123,216.555,361.983z M186.532,359.799l-5.685,3.282c-0.242,0.139-0.227,0.374,0.032,0.524
			l6.574,3.795c0.259,0.15,0.665,0.158,0.907,0.019l5.685-3.282c0.242-0.139,0.227-0.374-0.032-0.524l-6.574-3.795
			C187.18,359.668,186.774,359.659,186.532,359.799z M194.841,355.001l-5.685,3.282c-0.242,0.14-0.228,0.374,0.032,0.524
			l6.574,3.796c0.259,0.15,0.665,0.158,0.907,0.018l5.685-3.283c0.241-0.139,0.227-0.373-0.033-0.523l-6.574-3.796
			C195.489,354.87,195.083,354.862,194.841,355.001z M228.077,335.813l-5.685,3.282c-0.242,0.14-0.227,0.374,0.032,0.524
			l6.574,3.795c0.26,0.15,0.665,0.158,0.907,0.019l5.685-3.282c0.242-0.139,0.227-0.374-0.032-0.524l-6.574-3.795
			C228.725,335.682,228.319,335.673,228.077,335.813z M219.768,340.61l-5.685,3.283c-0.241,0.139-0.227,0.374,0.032,0.523
			l6.574,3.796c0.26,0.15,0.666,0.158,0.907,0.019l5.685-3.282c0.242-0.14,0.227-0.374-0.032-0.524l-6.574-3.795
			C220.415,340.479,220.01,340.47,219.768,340.61z M236.386,331.015l-5.685,3.282c-0.242,0.14-0.227,0.374,0.032,0.524l6.573,3.796
			c0.259,0.15,0.665,0.158,0.907,0.019l5.685-3.283c0.242-0.139,0.227-0.373-0.033-0.523l-6.574-3.796
			C237.034,330.884,236.628,330.876,236.386,331.015z M203.15,350.204l-5.685,3.283c-0.241,0.139-0.228,0.374,0.032,0.523
			l6.574,3.796c0.259,0.15,0.665,0.159,0.907,0.019l5.685-3.282c0.241-0.14,0.227-0.374-0.032-0.524l-6.574-3.795
			C203.798,350.073,203.391,350.065,203.15,350.204z M211.459,345.407l-5.685,3.282c-0.241,0.14-0.227,0.374,0.033,0.524
			l6.574,3.796c0.259,0.15,0.665,0.158,0.906,0.019l5.685-3.283c0.242-0.139,0.227-0.374-0.032-0.523l-6.574-3.795
			C212.107,345.276,211.701,345.268,211.459,345.407z M205.393,379.272l5.685-3.283c0.242-0.139,0.227-0.373-0.032-0.523
			l-6.574-3.796c-0.259-0.15-0.665-0.158-0.907-0.019l-5.685,3.282c-0.242,0.14-0.227,0.374,0.032,0.524l6.574,3.796
			C204.745,379.403,205.151,379.412,205.393,379.272z M156.634,374.35l-6.574-3.796c-0.259-0.15-0.665-0.158-0.907-0.018
			l-5.685,3.283c-0.242,0.139-0.227,0.373,0.032,0.523l6.573,3.796c0.26,0.15,0.666,0.158,0.907,0.018l5.685-3.282
			C156.908,374.734,156.893,374.499,156.634,374.35z M169.086,378.004l-6.574-3.795c-0.259-0.15-0.665-0.159-0.907-0.019
			l-8.746,5.05c-0.242,0.139-0.227,0.374,0.033,0.524l6.574,3.795c0.26,0.15,0.665,0.159,0.907,0.019l8.746-5.049
			C169.36,378.388,169.345,378.154,169.086,378.004z M146.548,367.012l-6.574-3.795c-0.259-0.15-0.665-0.159-0.907-0.019
			l-6.997,4.04c-0.241,0.139-0.227,0.374,0.032,0.523l6.574,3.796c0.26,0.15,0.666,0.158,0.907,0.018l6.997-4.04
			C146.822,367.396,146.807,367.161,146.548,367.012z M151.913,363.914c0.259,0.15,0.665,0.158,0.906,0.019l5.685-3.283
			c0.242-0.139,0.228-0.373-0.032-0.523l-6.574-3.796c-0.259-0.15-0.665-0.158-0.907-0.019l-5.684,3.282
			c-0.242,0.14-0.227,0.374,0.032,0.524L151.913,363.914z M180.663,382.164l-6.574-3.796c-0.259-0.149-0.665-0.158-0.907-0.018
			l-10.933,6.312c-0.242,0.14-0.227,0.374,0.033,0.524l6.574,3.796c0.259,0.15,0.665,0.158,0.907,0.019l10.933-6.312
			C180.938,382.548,180.923,382.314,180.663,382.164z M186.119,389.858l-6.574-3.795c-0.259-0.15-0.665-0.159-0.906-0.019
			l-6.997,4.04c-0.242,0.139-0.227,0.374,0.032,0.523l6.574,3.796c0.259,0.15,0.665,0.158,0.907,0.018l6.997-4.04
			C186.393,390.242,186.378,390.008,186.119,389.858z M213.691,328.247c0.259,0.15,0.665,0.158,0.906,0.019l5.685-3.283
			c0.242-0.139,0.228-0.373-0.032-0.523l-6.574-3.796c-0.259-0.15-0.666-0.158-0.908-0.019l-5.685,3.282
			c-0.242,0.14-0.227,0.374,0.032,0.524L213.691,328.247z M197.072,337.842c0.26,0.15,0.665,0.158,0.907,0.018l5.685-3.283
			c0.242-0.139,0.227-0.374-0.033-0.523l-6.574-3.795c-0.259-0.15-0.665-0.158-0.907-0.019l-5.685,3.282
			c-0.242,0.14-0.227,0.374,0.032,0.524L197.072,337.842z M160.221,359.117c0.259,0.15,0.666,0.159,0.907,0.019l5.685-3.282
			c0.242-0.139,0.227-0.374-0.032-0.524l-6.574-3.796c-0.259-0.149-0.665-0.158-0.907-0.018l-5.685,3.282
			c-0.241,0.139-0.227,0.374,0.032,0.524L160.221,359.117z M205.381,333.044c0.259,0.15,0.665,0.159,0.907,0.019l5.685-3.282
			c0.241-0.139,0.227-0.374-0.033-0.524l-6.574-3.795c-0.26-0.149-0.665-0.158-0.907-0.018l-5.685,3.282
			c-0.242,0.139-0.227,0.374,0.032,0.524L205.381,333.044z M188.763,342.639c0.259,0.149,0.665,0.158,0.907,0.018l5.685-3.282
			c0.242-0.139,0.227-0.374-0.032-0.524l-6.574-3.795c-0.259-0.15-0.665-0.158-0.907-0.018l-5.685,3.282
			c-0.242,0.14-0.227,0.374,0.033,0.524L188.763,342.639z M190.686,390.475c-0.26-0.15-0.665-0.159-0.907-0.019l-8.746,5.049
			c-0.242,0.139-0.227,0.374,0.032,0.524l6.574,3.795c0.259,0.15,0.665,0.159,0.907,0.019l8.746-5.049
			c0.242-0.139,0.227-0.374-0.033-0.524L190.686,390.475z M176.839,349.523c0.26,0.15,0.665,0.158,0.907,0.018l5.685-3.282
			c0.242-0.14,0.227-0.374-0.032-0.524l-6.574-3.796c-0.259-0.15-0.665-0.158-0.907-0.018l-5.685,3.283
			c-0.242,0.139-0.227,0.374,0.032,0.523L176.839,349.523z M168.53,354.32c0.26,0.15,0.665,0.158,0.907,0.019l5.685-3.283
			c0.242-0.139,0.227-0.374-0.032-0.523l-6.574-3.796c-0.259-0.15-0.665-0.158-0.907-0.019l-5.685,3.282
			c-0.241,0.14-0.227,0.374,0.033,0.524L168.53,354.32z M344.62,301.6c-0.259-0.15-0.665-0.158-0.907-0.019l-13.994,8.079
			c-0.242,0.139-0.228,0.374,0.032,0.524l6.574,3.795c0.259,0.15,0.665,0.158,0.907,0.018l13.994-8.08
			c0.241-0.139,0.227-0.373-0.032-0.523L344.62,301.6z M326.253,312.205c-0.259-0.15-0.665-0.158-0.907-0.019l-5.685,3.282
			c-0.242,0.14-0.227,0.374,0.032,0.524l6.573,3.796c0.259,0.149,0.665,0.158,0.907,0.018l5.685-3.282
			c0.242-0.139,0.227-0.374-0.033-0.524L326.253,312.205z M213.702,374.475l5.685-3.282c0.241-0.14,0.227-0.374-0.033-0.524
			l-6.573-3.796c-0.259-0.15-0.665-0.158-0.907-0.019l-5.685,3.282c-0.242,0.139-0.227,0.373,0.032,0.523l6.574,3.796
			C213.054,374.606,213.46,374.614,213.702,374.475z M309.635,321.799c-0.26-0.15-0.665-0.158-0.907-0.018l-5.685,3.282
			c-0.242,0.14-0.227,0.374,0.033,0.524l6.573,3.796c0.26,0.15,0.665,0.158,0.907,0.019l5.685-3.283
			c0.242-0.139,0.227-0.374-0.032-0.523L309.635,321.799z M352.929,296.803c-0.259-0.15-0.665-0.158-0.907-0.019l-5.685,3.283
			c-0.241,0.139-0.227,0.374,0.033,0.523l6.574,3.796c0.259,0.15,0.666,0.158,0.907,0.019l5.685-3.282
			c0.242-0.14,0.227-0.374-0.032-0.524L352.929,296.803z M367.812,295.802l-15.965-9.218c-0.259-0.15-0.665-0.158-0.907-0.019
			l-5.685,3.283c-0.242,0.139-0.227,0.374,0.032,0.523l15.965,9.218c0.26,0.15,0.665,0.158,0.907,0.019l5.685-3.283
			C368.086,296.186,368.071,295.951,367.812,295.802z M278.586,339.725c-0.259-0.15-0.665-0.158-0.907-0.018l-6.997,4.039
			c-0.242,0.139-0.227,0.374,0.032,0.524l6.574,3.795c0.259,0.15,0.665,0.158,0.907,0.019l6.997-4.04
			c0.242-0.139,0.227-0.374-0.032-0.523L278.586,339.725z M299.577,327.606c-0.259-0.15-0.665-0.158-0.907-0.019l-8.746,5.05
			c-0.242,0.139-0.227,0.374,0.032,0.523l6.574,3.796c0.259,0.15,0.665,0.158,0.907,0.018l8.746-5.05
			c0.242-0.139,0.227-0.373-0.032-0.523L299.577,327.606z M259.344,350.835c-0.259-0.15-0.665-0.158-0.907-0.019l-46.792,27.016
			c-0.242,0.139-0.228,0.374,0.032,0.523l6.574,3.796c0.259,0.15,0.665,0.159,0.907,0.019l46.792-27.015
			c0.242-0.14,0.227-0.374-0.032-0.524L259.344,350.835z M209.928,379.366c-0.259-0.15-0.666-0.158-0.907-0.019l-6.998,4.04
			c-0.242,0.139-0.227,0.374,0.033,0.524l6.574,3.796c0.26,0.149,0.666,0.158,0.907,0.018l6.998-4.04
			c0.241-0.139,0.227-0.373-0.033-0.523L209.928,379.366z M268.965,345.28c-0.259-0.15-0.665-0.158-0.907-0.019l-6.997,4.04
			c-0.242,0.14-0.228,0.374,0.032,0.524l6.574,3.795c0.259,0.15,0.665,0.159,0.907,0.019l6.997-4.04
			c0.242-0.139,0.227-0.373-0.033-0.523L268.965,345.28z M200.306,384.92c-0.259-0.15-0.665-0.158-0.907-0.018l-6.997,4.04
			c-0.242,0.14-0.227,0.374,0.033,0.524l6.574,3.796c0.26,0.15,0.665,0.158,0.907,0.019l6.997-4.04
			c0.242-0.14,0.227-0.374-0.032-0.524L200.306,384.92z M288.207,334.171c-0.259-0.15-0.665-0.159-0.907-0.019l-6.997,4.04
			c-0.241,0.139-0.227,0.374,0.033,0.523l6.574,3.795c0.259,0.15,0.665,0.158,0.906,0.019l6.997-4.04
			c0.242-0.139,0.227-0.374-0.033-0.524L288.207,334.171z M317.944,317.002c-0.26-0.15-0.666-0.158-0.907-0.019l-5.685,3.283
			c-0.242,0.139-0.227,0.373,0.033,0.523l6.573,3.796c0.259,0.15,0.665,0.158,0.907,0.018l5.685-3.282
			c0.242-0.14,0.227-0.374-0.032-0.524L317.944,317.002z M336.15,303.779l5.685-3.282c0.242-0.14,0.228-0.374-0.032-0.524
			l-6.574-3.795c-0.259-0.15-0.665-0.158-0.907-0.019l-5.685,3.282c-0.241,0.139-0.227,0.374,0.033,0.524l6.574,3.795
			C335.502,303.911,335.909,303.919,336.15,303.779z M299.001,303.54l5.685-3.282c0.242-0.139,0.227-0.374-0.032-0.524l-6.574-3.795
			c-0.259-0.15-0.665-0.159-0.907-0.019l-5.685,3.282c-0.242,0.14-0.227,0.374,0.033,0.524l6.573,3.795
			C298.353,303.671,298.759,303.68,299.001,303.54z M280.174,336.098l16.618-9.594c0.242-0.139,0.227-0.374-0.033-0.524
			l-6.574-3.796c-0.259-0.149-0.665-0.158-0.907-0.018l-16.618,9.594c-0.242,0.139-0.227,0.374,0.032,0.524l6.573,3.795
			C279.526,336.229,279.932,336.237,280.174,336.098z M326.934,308.558c0.259,0.15,0.665,0.158,0.906,0.019l5.685-3.282
			c0.242-0.14,0.227-0.374-0.032-0.524l-6.574-3.796c-0.259-0.15-0.665-0.158-0.906-0.018l-5.686,3.283
			c-0.241,0.139-0.227,0.374,0.032,0.523L326.934,308.558z M318.45,303.155l5.685-3.283c0.241-0.139,0.227-0.374-0.033-0.523
			l-6.574-3.796c-0.259-0.15-0.666-0.158-0.907-0.019l-5.685,3.282c-0.242,0.14-0.228,0.374,0.032,0.524l6.574,3.796
			C317.802,303.286,318.209,303.294,318.45,303.155z M271.865,340.895l5.685-3.283c0.242-0.139,0.227-0.373-0.032-0.523
			l-6.573-3.796c-0.259-0.15-0.665-0.158-0.907-0.019l-5.685,3.283c-0.242,0.139-0.227,0.373,0.033,0.523l6.573,3.795
			C271.217,341.026,271.623,341.034,271.865,340.895z M308.567,319.163c0.259,0.15,0.665,0.158,0.907,0.019l5.685-3.283
			c0.242-0.139,0.227-0.374-0.032-0.523l-6.574-3.795c-0.259-0.15-0.665-0.158-0.907-0.019l-5.685,3.282
			c-0.242,0.14-0.227,0.374,0.032,0.524L308.567,319.163z M230.32,364.881l5.685-3.283c0.241-0.139,0.227-0.373-0.032-0.523
			l-6.574-3.795c-0.259-0.15-0.665-0.158-0.907-0.019l-5.685,3.283c-0.242,0.139-0.227,0.373,0.032,0.523l6.574,3.796
			C229.673,365.012,230.079,365.02,230.32,364.881z M238.629,360.084l5.685-3.282c0.241-0.14,0.227-0.374-0.033-0.524l-6.574-3.796
			c-0.259-0.149-0.665-0.158-0.906-0.018l-5.685,3.282c-0.242,0.139-0.227,0.374,0.032,0.524l6.574,3.795
			C237.982,360.215,238.388,360.223,238.629,360.084z M222.011,369.678l5.685-3.282c0.242-0.139,0.227-0.374-0.033-0.524
			l-6.573-3.795c-0.259-0.15-0.665-0.159-0.907-0.019l-5.685,3.282c-0.242,0.139-0.227,0.374,0.032,0.524l6.574,3.796
			C221.364,369.809,221.769,369.818,222.011,369.678z M255.247,350.489l5.685-3.282c0.242-0.14,0.227-0.374-0.032-0.524
			l-6.574-3.796c-0.259-0.15-0.665-0.158-0.907-0.019l-5.685,3.283c-0.241,0.139-0.227,0.373,0.032,0.523l6.574,3.796
			C254.599,350.62,255.005,350.628,255.247,350.489z M246.938,355.286l5.685-3.282c0.242-0.139,0.228-0.373-0.032-0.523
			l-6.574-3.795c-0.259-0.15-0.665-0.158-0.907-0.019l-5.685,3.282c-0.241,0.14-0.227,0.374,0.033,0.524l6.574,3.796
			C246.29,355.417,246.696,355.426,246.938,355.286z M263.556,345.692l5.685-3.282c0.241-0.139,0.227-0.374-0.032-0.524
			l-6.574-3.795c-0.259-0.15-0.665-0.159-0.907-0.019l-5.685,3.282c-0.241,0.139-0.227,0.374,0.033,0.524l6.574,3.796
			C262.908,345.823,263.314,345.832,263.556,345.692z M301.569,274.725c0.26,0.15,0.665,0.158,0.907,0.019l5.685-3.283
			c0.242-0.139,0.227-0.373-0.032-0.523l-1.75-1.011c-0.26-0.15-0.666-0.158-0.907-0.018l-5.685,3.283
			c-0.241,0.139-0.227,0.373,0.033,0.523L301.569,274.725z M260.687,301.113c0.259,0.15,0.665,0.159,0.907,0.019l5.685-3.282
			c0.241-0.139,0.227-0.374-0.032-0.524l-6.573-3.795c-0.259-0.151-0.666-0.159-0.907-0.019l-5.685,3.283
			c-0.242,0.139-0.227,0.374,0.032,0.524L260.687,301.113z M277.305,291.519c0.259,0.15,0.665,0.158,0.906,0.019l5.685-3.282
			c0.242-0.14,0.227-0.374-0.032-0.524l-6.574-3.796c-0.259-0.15-0.665-0.158-0.907-0.018l-5.685,3.282
			c-0.241,0.139-0.227,0.374,0.033,0.523L277.305,291.519z M250.541,306.971c0.26,0.15,0.665,0.158,0.907,0.018l5.685-3.282
			c0.241-0.139,0.227-0.374-0.033-0.524l-6.574-3.796c-0.259-0.149-0.665-0.158-0.907-0.018l-5.685,3.282
			c-0.242,0.139-0.227,0.374,0.032,0.524L250.541,306.971z M268.996,296.316c0.259,0.15,0.665,0.158,0.907,0.019l5.685-3.283
			c0.241-0.139,0.227-0.374-0.033-0.523l-6.574-3.795c-0.259-0.15-0.665-0.158-0.906-0.019l-5.685,3.282
			c-0.242,0.14-0.228,0.374,0.032,0.524L268.996,296.316z M233.923,316.566c0.259,0.149,0.665,0.158,0.907,0.018l5.685-3.282
			c0.242-0.139,0.227-0.374-0.032-0.524l-6.574-3.795c-0.26-0.15-0.665-0.158-0.907-0.018l-5.685,3.282
			c-0.242,0.14-0.227,0.374,0.033,0.524L233.923,316.566z M242.232,311.768c0.259,0.15,0.665,0.158,0.907,0.018l5.685-3.283
			c0.242-0.139,0.227-0.373-0.033-0.523l-6.574-3.796c-0.26-0.15-0.665-0.158-0.907-0.018l-5.685,3.282
			c-0.242,0.14-0.227,0.374,0.032,0.524L242.232,311.768z M284.951,284.319c0.259,0.15,0.665,0.158,0.907,0.019l5.685-3.283
			c0.241-0.139,0.227-0.373-0.032-0.523l-1.75-1.01c-0.259-0.15-0.665-0.158-0.906-0.019l-5.685,3.283
			c-0.242,0.139-0.228,0.374,0.032,0.523L284.951,284.319z M309.878,269.928c0.259,0.15,0.665,0.159,0.907,0.019l5.685-3.282
			c0.242-0.14,0.227-0.374-0.033-0.524l-1.75-1.011c-0.26-0.149-0.665-0.158-0.907-0.018l-5.685,3.282
			c-0.242,0.139-0.227,0.374,0.032,0.524L309.878,269.928z M323.688,277.901c0.26,0.15,0.665,0.158,0.907,0.019l5.685-3.282
			c0.242-0.14,0.227-0.374-0.032-0.524l-6.574-3.795c-0.259-0.15-0.665-0.158-0.907-0.019l-5.685,3.283
			c-0.242,0.139-0.227,0.374,0.032,0.523L323.688,277.901z M344.459,298.983l5.685-3.283c0.242-0.139,0.228-0.373-0.032-0.523
			l-6.574-3.796c-0.259-0.15-0.665-0.158-0.907-0.019l-5.685,3.282c-0.241,0.14-0.227,0.374,0.033,0.524l6.573,3.796
			C343.811,299.114,344.217,299.122,344.459,298.983z M293.26,279.522c0.259,0.15,0.665,0.159,0.907,0.019l5.685-3.282
			c0.242-0.139,0.227-0.374-0.032-0.524l-1.75-1.01c-0.259-0.15-0.665-0.159-0.907-0.019l-5.685,3.282
			c-0.241,0.14-0.227,0.374,0.033,0.524L293.26,279.522z M225.614,321.363c0.259,0.15,0.666,0.158,0.907,0.019l5.685-3.282
			c0.242-0.14,0.228-0.374-0.032-0.524l-6.574-3.796c-0.259-0.15-0.665-0.158-0.907-0.019l-5.685,3.283
			c-0.241,0.139-0.227,0.373,0.033,0.523L225.614,321.363z"/>
		<path id="XMLID_1414_" style="fill:#263238;" d="M262.462,371.237l56.102-32.39c1.691-0.976,4.432-0.976,6.123,0l32.17,18.573
			c1.691,0.976,1.691,2.559,0,3.535l-56.102,32.391c-1.691,0.976-4.432,0.976-6.123,0l-32.169-18.573
			C260.771,373.796,260.771,372.213,262.462,371.237z"/>
	</g>
</g>
<g id="Hand">
	<g id="XMLID_2056_">
		<path id="XMLID_1373_" style="fill:#455A64;" d="M231.202,199.187l8.767-15.32l-32.889-19.097c-0.01-0.006-0.02-0.012-0.03-0.018
			l-0.036-0.021l-0.001,0.002c-5.513-3.153-13.113-2.683-21.506,2.163c-16.839,9.722-30.489,33.366-30.489,52.81
			c0,9.742,3.427,16.58,8.965,19.757l-0.001,0.001l33.158,19.25l9.007-15.739C219.051,233.025,229.21,215.306,231.202,199.187z"/>
		<path id="XMLID_1371_" style="fill:#263238;" d="M218.611,186.116c-16.839,9.722-30.489,33.366-30.489,52.81
			c0,19.444,13.65,27.325,30.489,17.603c16.839-9.722,30.489-33.366,30.489-52.809C249.1,184.275,235.45,176.394,218.611,186.116z"
			/>
		<path id="XMLID_1377_" style="fill:#F5F5F5;" d="M249.585,209.03l8.307-14.517l-16.418-9.482c-0.01-0.006-0.019-0.011-0.029-0.017
			l-0.035-0.02l-0.001,0.001c-5.225-2.988-12.426-2.542-20.38,2.05c-15.957,9.213-28.892,31.618-28.892,50.043
			c0,9.232,3.248,15.711,8.495,18.722l-0.001,0.001l16.673,9.626l8.535-14.914C238.07,241.095,247.698,224.305,249.585,209.03z"/>
		<path id="XMLID_2141_" style="fill:#EBEBEB;" d="M193.061,228.166c-0.602,3.028-0.923,6.024-0.923,8.923
			c0,9.232,3.248,15.711,8.495,18.722l-0.001,0.001l16.673,9.626l8.535-14.914c0.829-0.639,1.643-1.317,2.446-2.021L193.061,228.166
			z"/>
		<path id="XMLID_1367_" style="fill:#E0E0E0;" d="M237.654,196.644c-15.957,9.213-28.892,31.618-28.892,50.043
			c0,18.426,12.935,25.894,28.892,16.681c15.957-9.213,28.892-31.618,28.892-50.043C266.546,194.9,253.611,187.431,237.654,196.644z
			"/>
		<g id="XMLID_1366_">
			<path id="XMLID_1392_" style="fill:#FFA8A7;" d="M379.595,311.588c-3.509,2.589-11.316,0.532-11.807,0.409
				c0.379,0.164,6.466,2.967,7.96,9.086c0.563,2.292-1.228,4.993-2.855,6.108c-5.392,3.694-13.352-0.123-17.659-2.456
				c0,0,2.936,2.773,3.909,5.975c0.778,2.578,0.317,5.423-1.719,6.753c-4.389,2.855-10.426,3.09-29.958-8.625
				c0,0,1.228,1.627,1.35,3.52c0.021,0.102,0.021,0.215,0.021,0.317c0,0.594-0.112,1.187-0.409,1.77
				c-0.143,0.286-0.338,0.573-0.583,0.849c-0.573,0.634-1.432,1.207-2.701,1.668c-6.62,2.404-24.33-9.055-36.342-16.513
				c-12.012-7.448-28.996-19.634-37.396-27.41c-12.298-11.367-10.395-16.749-22.274-26.223c-2.834-2.271-6.456-4.758-11.234-7.622
				c-0.348-0.164-4.666-2.844-8.328-5.146c-0.532-2.2-0.808-4.665-0.808-7.356c0-1.391,0.072-2.803,0.235-4.236
				c1.739-17.496,13.904-37.293,28.658-45.806c2.681-1.545,5.269-2.619,7.735-3.254c3.868,2.445,9.28,5.863,9.638,6.108
				c4.123,2.824,7.438,4.594,10.579,5.914c1.801,0.757,3.55,1.371,5.361,1.944c5.372,1.698,23.174,5.811,33.313,9.556
				c10.139,3.745,19.481,7.96,23.379,10.497c3.898,2.548,14.518,15.613,21.742,21.046c7.223,5.423,7.96,9.802,1.739,10.989
				c-6.211,1.197-15.357,0.89-23-4.799c-7.633-5.689-10.068-7.674-12.687-7.489c-2.609,0.194,3.131,5.228,6.599,8.451
				c2.053,1.896,4.576,4.989,6.3,7.206c1.712,2.203,3.597,4.253,5.635,6.158c4.064,3.797,10.932,9.85,17.409,13.84
				c10.058,6.2,21.731,12.708,25.987,16.668C381.641,303.454,383.227,308.917,379.595,311.588z"/>
			<path id="XMLID_1931_" style="fill:#F28F8F;" d="M378.367,308.521c-2.435,1.406-5.811,0.892-11.325-1.081
				c-5.513-1.974-18.844-8.9-23.705-11.707c-2.766-1.597-13.544-7.893-22.321-13.024c-0.58-0.339-1.114,0.501-0.56,0.881
				c7.695,5.272,17.123,11.667,21.316,14.252c9.374,5.78,17.149,9.598,25.998,14.147c0,0,8.203,2.27,11.828-0.4
				c2.341-1.724,2.503-4.616,1.183-7.516C380.781,304.074,380.801,307.115,378.367,308.521z"/>
			<path id="XMLID_1932_" style="fill:#F28F8F;" d="M371.737,325.134c-4.476,1.279-11.967-2.583-15.001-4.125
				c-3.034-1.543-23.809-12.708-27.286-14.798c-4.305-2.589-11.979-7.206-19.967-12.008c-1.159-0.697-2.253,0.997-1.134,1.757
				c10.275,6.983,22.647,13.865,28.623,17.185c8.27,4.594,13.509,8.048,18.259,11.59c4.306,2.337,12.266,6.155,17.664,2.46
				c1.631-1.116,3.414-3.82,2.852-6.117C375.746,321.078,375.666,324.012,371.737,325.134z"/>
			<path id="XMLID_1368_" style="fill:#F28F8F;" d="M357.424,337.458c1.839-1.2,2.387-3.64,1.899-6.002
				c-0.007,0.229-0.163,3.311-3.558,3.853c-3.526,0.564-6.718-0.264-10.973-1.766c-4.404-1.554-17.567-9.894-21.826-12.234
				c-2.656-1.459-18.132-11.16-29.404-18.254c-0.696-0.438-0.823,0.525-0.137,0.978c8.351,5.527,12.917,8.854,16.706,11.512
				c7.059,4.952,13.877,9.306,17.331,13.288C346.996,340.552,353.034,340.322,357.424,337.458z"/>
			<path id="XMLID_1389_" style="fill:#F28F8F;" d="M328.837,332.674c0,0.594-0.112,1.187-0.409,1.77
				c-0.143,0.286-0.338,0.573-0.583,0.849c-0.573,0.634-1.432,1.207-2.701,1.668c-6.62,2.404-24.33-9.055-36.342-16.513
				c-12.012-7.448-28.996-19.634-37.396-27.41c-12.298-11.367-10.395-16.749-22.274-26.223c-2.834-2.271-6.456-4.758-11.234-7.622
				c-0.348-0.164-4.666-2.844-8.328-5.146c-0.532-2.2-0.808-4.665-0.808-7.356c0-1.391,0.072-2.803,0.235-4.236
				c11.459,7.101,25.425,15.04,29.937,19.399c0.154,0.154,0.307,0.297,0.45,0.45c5.822,5.811,7.96,11.776,12.012,21.138
				c4.164,9.597,20.78,19.777,37.406,31.492c16.626,11.705,27.911,18.284,33.252,19.828c0.982,0.286,1.821,0.399,2.558,0.399
				c3.018,0,4.042-2.036,4.205-2.803c0.01-0.01,0.01-0.02,0.01-0.031C328.837,332.439,328.837,332.562,328.837,332.674z"/>
			<path id="XMLID_2140_" style="fill:#F28F8F;" d="M247.855,194.953c-0.848-0.536-1.688-1.067-2.466-1.559
				c-2.466,0.634-5.054,1.709-7.735,3.254c-14.754,8.513-26.919,28.31-28.658,45.806c-0.164,1.432-0.235,2.844-0.235,4.236
				c0,2.691,0.276,5.157,0.808,7.356c3.663,2.302,7.98,4.983,8.328,5.146c1.411,0.846,2.711,1.656,3.93,2.44
				c0.226-3.489,0.412-7.161,0.544-11.035C223.84,207.341,247.855,194.953,247.855,194.953z"/>
			<path id="XMLID_1372_" style="opacity:0.5;fill:#F28F8F;" d="M322.054,255.607c-3.474-3.222-9.213-8.257-6.595-8.444
				c-5.874,0.289-12.375,7.311-28.608,8.616c-16.233,1.305-31.294-5.927-31.294-5.927s14.551,8.401,16.625,21.595
				c1.234,7.85-1.162,15.725,6.94,16.005c8.392,0.29,16.087-3.902,25.817-18.12c7.888-11.527,18.436-11.622,24.595-5.052
				c-0.306-0.404-0.76-0.923-1.179-1.46C326.631,260.604,324.107,257.51,322.054,255.607z"/>
			<path id="XMLID_1117_" style="fill:#F28F8F;" d="M326.21,273.847c-4.207,7.884-22.774,27.642-41.057,31.483
				c0,0,13.563,0.798,26.03-9.598C323.648,285.337,326.21,273.847,326.21,273.847z"/>
		</g>
	</g>
</g>
<g id="Coin">
	<g id="XMLID_1529_">
		<g id="XMLID_2060_">
			<path id="XMLID_2155_" style="fill:#27DEBF;" d="M346.665,142.487l3.554-7.413l-16.907-9.76l-0.011,0.024
				c-1.841-1.064-3.791-1.902-5.859-2.461c-0.712-0.19-1.439-0.345-2.176-0.476c-3.417-0.593-7.082-0.513-10.94,0.299
				c-1.294,0.269-2.613,0.623-3.946,1.063c-1.338,0.43-2.7,0.951-4.076,1.565c-1.721,0.754-3.466,1.645-5.235,2.68
				c-1.847,1.079-3.664,2.271-5.458,3.584c-1.347,0.985-2.68,2.032-3.994,3.146c-19.297,16.285-34.478,45.318-38.331,73.239
				c-0.267,1.905-0.475,3.797-0.625,5.68c-0.228,2.697-0.339,5.379-0.33,8.023c0.01,2.166,0.092,4.264,0.257,6.289
				c0.141,1.754,0.339,3.449,0.591,5.087c0.252,1.632,0.557,3.207,0.916,4.726v0.007c1.061,4.531,2.588,8.536,4.513,11.975
				c0.417,0.742,0.848,1.462,1.299,2.152c1.973,3.01,4.285,5.508,6.888,7.443c0.816,0.61,1.667,1.152,2.539,1.652l-0.006,0.014
				l16.063,9.262l3.253-6.786c0.863-0.192,1.734-0.416,2.614-0.681c3.301-0.988,6.723-2.492,10.228-4.535
				c2.036-1.188,4.038-2.519,6.005-3.991c2.525-1.885,4.993-3.988,7.377-6.289c16.107-15.497,28.792-39.747,33.436-63.885
				c0.693-3.587,1.202-7.17,1.522-10.715c0.267-2.959,0.402-5.9,0.393-8.796c-0.015-4.47-0.368-8.641-1.028-12.481
				C348.598,148.636,347.745,145.42,346.665,142.487z"/>
			<g id="XMLID_2059_">
				<path id="XMLID_1965_" style="opacity:0.25;fill:#FFFFFF;" d="M256.834,191.467l32.901,18.995l4.154-11.997l-32.935-19.016
					C259.385,183.392,258.004,187.412,256.834,191.467z"/>
				<path id="XMLID_1923_" style="opacity:0.25;fill:#FFFFFF;" d="M333.312,125.314l-0.011,0.024
					c-1.841-1.064-3.791-1.903-5.859-2.461c-0.712-0.19-1.44-0.345-2.176-0.476c-3.417-0.593-7.082-0.513-10.94,0.299
					c-0.478,0.099-0.962,0.223-1.446,0.345l33.813,19.523c-0.01-0.027-0.018-0.055-0.028-0.081l3.554-7.413L333.312,125.314z"/>
				<path id="XMLID_1921_" style="opacity:0.25;fill:#FFFFFF;" d="M331.294,172.162l4.155-4.995l-48.658-28.007
					c-1.503,1.487-2.972,3.053-4.409,4.685L331.294,172.162z"/>
				<path id="XMLID_1916_" style="opacity:0.25;fill:#FFFFFF;" d="M272.339,157.228l42.33,24.439l4.512-11.792l-39.513-22.813
					C277.089,150.247,274.638,153.65,272.339,157.228z"/>
				<path id="XMLID_2159_" style="opacity:0.4;fill:#FFFFFF;" d="M333.312,125.314l-0.011,0.024
					c-1.841-1.064-3.791-1.902-5.859-2.461c-0.712-0.19-1.439-0.345-2.176-0.476c-3.417-0.593-7.082-0.513-10.94,0.299
					c-1.294,0.269-2.613,0.623-3.946,1.063c-1.338,0.43-2.7,0.951-4.076,1.565c-1.721,0.754-3.466,1.645-5.235,2.68
					c-1.847,1.079-3.664,2.271-5.458,3.584c-1.347,0.985-2.68,2.032-3.994,3.146c-17.973,15.169-32.372,41.396-37.376,67.484
					L321.404,241c12.954-15.287,22.906-36.116,26.901-56.879c0.693-3.587,1.202-7.17,1.522-10.715
					c0.267-2.959,0.402-5.9,0.393-8.796c-0.015-4.47-0.368-8.641-1.028-12.481c-0.594-3.492-1.447-6.708-2.526-9.641l3.554-7.413
					L333.312,125.314z"/>
			</g>
			<path id="XMLID_2158_" style="opacity:0.1;" d="M285.39,270.287l3.253-6.786c0.863-0.192,1.734-0.416,2.614-0.681
				c3.301-0.988,6.723-2.492,10.228-4.535c2.036-1.188,4.038-2.519,6.005-3.991c2.525-1.885,4.993-3.988,7.377-6.289
				c2.252-2.167,4.429-4.521,6.535-7.006l-67.163-38.777c-0.368,1.921-0.691,3.84-0.955,5.755c-0.267,1.905-0.475,3.797-0.625,5.68
				c-0.228,2.697-0.339,5.379-0.33,8.023c0.01,2.166,0.092,4.264,0.257,6.289c0.141,1.754,0.339,3.449,0.591,5.087
				c0.252,1.632,0.557,3.207,0.916,4.726v0.007c1.061,4.531,2.588,8.536,4.513,11.975c0.417,0.742,0.848,1.462,1.299,2.152
				c1.973,3.01,4.285,5.508,6.888,7.443c0.816,0.61,1.667,1.152,2.539,1.652l-0.006,0.014L285.39,270.287z"/>
			<path id="XMLID_1385_" style="opacity:0.1;" d="M258.608,249.764c0.417,0.742,0.848,1.462,1.299,2.152
				c1.973,3.01,4.285,5.508,6.888,7.443c0.816,0.61,1.667,1.152,2.539,1.652l-0.006,0.014l16.063,9.262l3.253-6.786
				c0.043-0.01,0.086-0.022,0.129-0.031l0.236-2.781l-34.047-19.657C255.932,244.253,257.156,247.17,258.608,249.764z"/>
		</g>
		<g id="XMLID_2321_">
			<path id="XMLID_2358_" style="fill:#27DEBF;" d="M365.814,161.723c-0.785-4.62-2.021-8.76-3.64-12.395
				c-2.394-5.384-5.637-9.632-9.544-12.618c-2.583-1.979-5.453-3.399-8.565-4.239c-0.713-0.19-1.44-0.345-2.176-0.476
				c-3.417-0.593-7.081-0.513-10.94,0.299c-1.294,0.269-2.613,0.623-3.946,1.063c-1.338,0.43-2.7,0.951-4.076,1.565
				c-1.721,0.754-3.466,1.645-5.235,2.68c-1.847,1.079-3.664,2.271-5.458,3.584c-1.348,0.985-2.681,2.032-3.994,3.146
				c-19.297,16.285-34.478,45.318-38.331,73.239c-0.267,1.905-0.475,3.797-0.625,5.68c-0.228,2.697-0.339,5.379-0.33,8.023
				c0.01,2.166,0.092,4.264,0.257,6.289c0.141,1.754,0.339,3.449,0.591,5.087c0.252,1.632,0.557,3.207,0.916,4.725v0.007
				c1.061,4.531,2.588,8.536,4.513,11.975c0.417,0.742,0.848,1.462,1.299,2.152c1.973,3.01,4.285,5.508,6.888,7.443
				c3.931,2.939,8.526,4.617,13.596,4.876c3.422,0.189,7.062-0.271,10.867-1.414c3.301-0.988,6.723-2.492,10.227-4.535
				c2.036-1.188,4.038-2.519,6.006-3.991c2.525-1.884,4.993-3.988,7.377-6.289c16.107-15.497,28.792-39.747,33.436-63.885
				c0.693-3.586,1.202-7.17,1.522-10.715c0.267-2.959,0.402-5.9,0.393-8.797C366.827,169.733,366.473,165.562,365.814,161.723z"/>
			<path id="XMLID_2088_" style="opacity:0.05;" d="M270.871,211.779c-0.372,1.933-0.697,3.866-0.963,5.793
				c-0.267,1.905-0.475,3.796-0.625,5.68c-0.228,2.697-0.339,5.379-0.33,8.023c0.01,2.166,0.092,4.264,0.257,6.289
				c0.141,1.754,0.339,3.449,0.591,5.087c0.252,1.632,0.557,3.207,0.916,4.725v0.007c1.061,4.532,2.588,8.536,4.513,11.975
				c0.417,0.742,0.848,1.462,1.299,2.152c1.973,3.01,4.285,5.508,6.888,7.443c3.931,2.939,8.526,4.617,13.596,4.876
				c3.422,0.189,7.062-0.271,10.867-1.414c3.301-0.988,6.723-2.492,10.228-4.535c1.809-1.056,3.586-2.242,5.342-3.522
				L270.871,211.779z"/>
			<path id="XMLID_2061_" style="opacity:0.05;" d="M271.626,250.76c0.964,3.167,2.173,6.04,3.604,8.598
				c0.417,0.742,0.848,1.462,1.299,2.152c1.973,3.01,4.285,5.508,6.888,7.443c3.247,2.428,6.952,3.979,10.999,4.597L271.626,250.76z
				"/>
			<g id="XMLID_1380_">
				<path id="XMLID_1913_" style="opacity:0.25;fill:#FFFFFF;" d="M277.56,189.063c-1.567,3.938-2.941,7.954-4.11,12.003
					l57.263,57.263c0.259-0.244,0.521-0.48,0.779-0.729c2.426-2.334,4.762-4.888,7.017-7.588L277.56,189.063z"/>
				<path id="XMLID_1914_" style="opacity:0.25;fill:#FFFFFF;" d="M296.283,156.655c-2.58,3.184-5.028,6.592-7.326,10.169
					l63.029,63.029c2.052-3.844,3.923-7.823,5.602-11.892L296.283,156.655z"/>
				<path id="XMLID_1915_" style="opacity:0.25;fill:#FFFFFF;" d="M303.435,148.741c-1.515,1.499-2.999,3.074-4.447,4.72
					l60.263,60.263c0.841-2.256,1.634-4.528,2.347-6.82L303.435,148.741z"/>
				<path id="XMLID_2019_" style="opacity:0.25;fill:#FFFFFF;" d="M366.701,169.848L366.701,169.848
					c-0.065-1.166-0.158-2.304-0.268-3.426c-0.038-0.373-0.073-0.749-0.116-1.117c-0.043-0.382-0.091-0.759-0.14-1.135
					c-0.11-0.828-0.226-1.65-0.363-2.449c-0.785-4.62-2.021-8.76-3.64-12.394c-2.394-5.384-5.637-9.632-9.544-12.618
					c-2.583-1.979-5.453-3.399-8.565-4.239c-0.713-0.19-1.44-0.345-2.176-0.476c-3.417-0.593-7.081-0.513-10.94,0.299
					c-0.48,0.1-0.967,0.224-1.454,0.347L366.701,169.848z"/>
			</g>
			<path id="XMLID_2347_" style="fill:#27DEBF;" d="M354.369,181.688c0,25.763-15.021,55.507-34.026,68.158
				c-0.806,0.536-1.627,1.05-2.448,1.524c-20.143,11.63-36.467-0.711-36.467-27.569c0-26.858,16.324-58.058,36.467-69.687
				c0.821-0.474,1.642-0.908,2.448-1.303C339.348,143.515,354.369,155.925,354.369,181.688z"/>
			<path id="XMLID_2346_" style="opacity:0.4;" d="M354.369,181.688c0,25.763-15.021,55.507-34.026,68.158
				c-0.806,0.536-1.627,1.05-2.448,1.524c-20.143,11.63-36.467-0.711-36.467-27.569c0-26.858,16.324-58.058,36.467-69.687
				c0.821-0.474,1.642-0.908,2.448-1.303C339.348,143.515,354.369,155.925,354.369,181.688z"/>
			<path id="XMLID_2343_" style="fill:#27DEBF;" d="M352.746,182.626c0,0.827-0.014,1.663-0.053,2.506
				c-0.921,24.011-14.91,50.934-32.461,62.618c-0.16,0.105-0.315,0.208-0.475,0.313c-0.616,0.401-1.236,0.785-1.861,1.146
				c-3.824,2.208-7.508,3.514-10.95,3.982c-8.177,1.115-15.012-2.469-19.253-9.805c-2.482-4.306-4.077-9.906-4.513-16.615
				c-0.087-1.262-0.131-2.561-0.131-3.906c0-1.234,0.034-2.469,0.107-3.72c0.145-2.617,0.446-5.266,0.887-7.919
				c3.073-18.552,12.976-37.473,25.559-48.835c1.798-1.626,3.655-3.099,5.555-4.39c0.902-0.617,1.818-1.192,2.739-1.723
				c0.785-0.453,1.57-0.868,2.336-1.245c0.218-0.107,0.436-0.213,0.654-0.307c5.22-2.426,10.106-3.127,14.411-2.297
				c7.339,1.412,12.99,7.261,15.695,16.603C352.13,172.971,352.746,177.527,352.746,182.626z"/>
			<path id="XMLID_2340_" style="opacity:0.7;" d="M352.746,182.626c0,0.827-0.014,1.663-0.053,2.506
				c-0.921,24.011-14.91,50.934-32.461,62.618c-0.16,0.105-0.315,0.208-0.475,0.313c-0.616,0.401-1.236,0.785-1.861,1.146
				c-3.824,2.208-7.508,3.514-10.95,3.982c-8.177,1.115-15.012-2.469-19.253-9.805c-2.482-4.306-4.077-9.906-4.513-16.615
				c-0.087-1.262-0.131-2.561-0.131-3.906c0-1.234,0.034-2.469,0.107-3.72c0.145-2.617,0.446-5.266,0.887-7.919
				c3.073-18.552,12.976-37.473,25.559-48.835c1.798-1.626,3.655-3.099,5.555-4.39c0.902-0.617,1.818-1.192,2.739-1.723
				c0.785-0.453,1.57-0.868,2.336-1.245c0.218-0.107,0.436-0.213,0.654-0.307c5.22-2.426,10.106-3.127,14.411-2.297
				c7.339,1.412,12.99,7.261,15.695,16.603C352.13,172.971,352.746,177.527,352.746,182.626z"/>
			<path id="XMLID_1396_" style="fill:#27DEBF;" d="M346.909,181.77c0.039-0.843,0.053-1.679,0.053-2.506
				c0-5.099-0.616-9.656-1.755-13.593c-1.578-5.451-4.166-9.702-7.5-12.587c-0.782-0.27-1.585-0.494-2.412-0.653
				c-4.304-0.83-9.19-0.129-14.411,2.297c-0.218,0.094-0.436,0.2-0.654,0.307c-0.766,0.378-1.551,0.792-2.336,1.245
				c-0.921,0.532-1.837,1.106-2.739,1.723c-1.9,1.291-3.757,2.763-5.555,4.39c-12.583,11.362-22.486,30.284-25.559,48.835
				c-0.441,2.652-0.742,5.301-0.887,7.919c-0.073,1.251-0.107,2.485-0.107,3.72c0,1.344,0.043,2.644,0.131,3.906
				c0.436,6.709,2.031,12.309,4.513,16.615c1.297,2.244,2.84,4.132,4.587,5.647c2.708,0.94,5.691,1.23,8.883,0.795
				c3.441-0.468,7.125-1.774,10.95-3.982c0.625-0.361,1.246-0.745,1.861-1.146c0.16-0.105,0.315-0.208,0.475-0.313
				C331.999,232.703,345.988,205.781,346.909,181.77z"/>
			<path id="XMLID_1370_" style="opacity:0.6;" d="M346.909,181.77c0.039-0.843,0.053-1.679,0.053-2.506
				c0-5.099-0.616-9.656-1.755-13.593c-1.578-5.451-4.166-9.702-7.5-12.587c-0.782-0.27-1.585-0.494-2.412-0.653
				c-4.304-0.83-9.19-0.129-14.411,2.297c-0.218,0.094-0.436,0.2-0.654,0.307c-0.766,0.378-1.551,0.792-2.336,1.245
				c-0.921,0.532-1.837,1.106-2.739,1.723c-1.9,1.291-3.757,2.763-5.555,4.39c-12.583,11.362-22.486,30.284-25.559,48.835
				c-0.441,2.652-0.742,5.301-0.887,7.919c-0.073,1.251-0.107,2.485-0.107,3.72c0,1.344,0.043,2.644,0.131,3.906
				c0.436,6.709,2.031,12.309,4.513,16.615c1.297,2.244,2.84,4.132,4.587,5.647c2.708,0.94,5.691,1.23,8.883,0.795
				c3.441-0.468,7.125-1.774,10.95-3.982c0.625-0.361,1.246-0.745,1.861-1.146c0.16-0.105,0.315-0.208,0.475-0.313
				C331.999,232.703,345.988,205.781,346.909,181.77z"/>
		</g>
		<g id="XMLID_2062_">
			<path id="XMLID_2095_" style="fill:#F5F5F5;" d="M341.888,131.996c-3.114-0.504-6.301-0.42-9.394,0.12
				c-1.555,0.24-3.041,0.752-4.568,1.159c-0.368,0.116-0.784,0.193-1.112,0.341l-1.099,0.436l-2.197,0.872
				c-2.875,1.215-5.616,2.794-8.235,4.509c-1.311,0.882-2.588,1.744-3.804,2.757c-1.208,0.995-2.516,1.938-3.643,2.976
				c-1.151,1.072-2.368,2.09-3.465,3.208c-1.087,1.128-2.217,2.21-3.268,3.373l-3.109,3.534l-2.954,3.666l-2.781,3.8
				c-0.907,1.281-1.747,2.608-2.624,3.91c-1.684,2.648-3.322,5.331-4.794,8.104l-1.13,2.066l-1.044,2.111
				c-0.693,1.409-1.414,2.804-2.026,4.251c-1.315,2.853-2.482,5.767-3.627,8.691l-1.572,4.44c-0.501,1.487-0.933,2.997-1.404,4.495
				c-0.494,1.492-0.821,3.03-1.238,4.543c-0.424,1.513-0.742,3.05-1.065,4.586l-0.491,2.303l-0.391,2.321
				c-0.249,1.561-0.542,3.075-0.683,4.652c-0.169,1.561-0.366,3.143-0.512,4.687c-0.132,1.561-0.225,3.13-0.277,4.697
				c-0.026,0.784-0.042,1.568-0.047,2.353c0.001,0.755,0.047,1.566,0.068,2.346c0.069,1.563,0.075,3.177,0.197,4.698l0.519,4.675
				l0.87,4.647l0.005,0.028l0,0.025v0.006l-0.007-0.063c0.95,4.124,2.313,8.178,4.34,11.909c0.539,0.902,1.055,1.853,1.636,2.73
				c0.586,0.882,1.219,1.738,1.891,2.559c1.346,1.642,2.873,3.142,4.565,4.434c-1.721-1.253-3.287-2.722-4.676-4.341
				c-0.694-0.811-1.348-1.654-1.96-2.532c-0.614-0.885-1.135-1.798-1.708-2.71c-2.115-3.716-3.625-7.767-4.622-11.925l-0.007-0.029
				l0-0.033l0-0.006l0.005,0.052l-0.929-4.636l-0.586-4.714c-0.15-1.617-0.17-3.16-0.261-4.744
				c-0.032-0.794-0.087-1.558-0.099-2.378c-0.005-0.791,0-1.583,0.017-2.374c0.032-1.583,0.106-3.163,0.219-4.744
				c0.127-1.596,0.327-3.142,0.486-4.715c0.133-1.566,0.428-3.152,0.67-4.703l0.384-2.342l0.485-2.323
				c0.319-1.55,0.634-3.101,1.054-4.626c0.413-1.527,0.737-3.078,1.228-4.583c0.467-1.511,0.897-3.035,1.395-4.535l1.565-4.48
				l1.74-4.415c0.568-1.477,1.275-2.895,1.906-4.345c0.624-1.454,1.355-2.858,2.059-4.274l1.061-2.122l1.147-2.077
				c1.496-2.788,3.157-5.484,4.865-8.145c0.889-1.308,1.742-2.642,2.661-3.929l2.819-3.819l2.994-3.684
				c1.031-1.2,2.115-2.355,3.172-3.533c1.077-1.16,2.239-2.247,3.354-3.374c1.126-1.117,2.345-2.109,3.513-3.17
				c1.208-1.079,2.478-1.966,3.714-2.958c1.219-0.991,2.569-1.882,3.883-2.741c2.67-1.702,5.436-3.257,8.402-4.419l2.216-0.822
				l1.108-0.411c0.398-0.162,0.768-0.214,1.153-0.326c1.525-0.37,3.044-0.854,4.616-1.061
				C335.584,131.432,338.786,131.422,341.888,131.996z"/>
		</g>
		<g id="XMLID_1968_">
			<defs>
				<path id="XMLID_1413_" d="M352.746,182.626c0,0.827-0.014,1.663-0.053,2.506c-0.921,24.011-14.91,50.934-32.461,62.618
					c-0.16,0.105-0.315,0.208-0.475,0.313c-0.616,0.401-1.236,0.785-1.861,1.146c-3.824,2.208-7.508,3.514-10.95,3.982
					c-8.177,1.115-15.012-2.469-19.253-9.805c-2.482-4.306-4.077-9.906-4.513-16.615c-0.087-1.262-0.131-2.561-0.131-3.906
					c0-1.234,0.034-2.469,0.107-3.72c0.145-2.617,0.446-5.266,0.887-7.919c3.073-18.552,12.976-37.473,25.559-48.835
					c1.798-1.626,3.655-3.099,5.555-4.39c0.902-0.617,1.818-1.192,2.739-1.723c0.785-0.453,1.57-0.868,2.336-1.245
					c0.218-0.107,0.436-0.213,0.654-0.307c5.22-2.426,10.106-3.127,14.411-2.297c7.339,1.412,12.99,7.261,15.695,16.603
					C352.13,172.971,352.746,177.527,352.746,182.626z"/>
			</defs>
			<clipPath id="XMLID_00000137109909924434047530000008266738419353407395_">
				<use xlink:href="#XMLID_1413_"  style="overflow:visible;"/>
			</clipPath>
			<g id="XMLID_2031_" style="clip-path:url(#XMLID_00000137109909924434047530000008266738419353407395_);">
				<g id="XMLID_1985_">
					<g id="XMLID_2139_">
						<polygon id="XMLID_1374_" style="fill:#27DEBF;" points="309.796,165.43 315.819,168.916 324.471,163.921 318.448,160.435 
													"/>
						<polygon id="XMLID_1381_" style="opacity:0.2;" points="309.796,165.43 315.819,168.916 324.471,163.921 318.448,160.435 
													"/>
					</g>
					<g id="XMLID_2138_">
						<polygon id="XMLID_1391_" style="fill:#27DEBF;" points="312.81,170.653 306.787,167.167 298.135,172.162 304.159,175.648 
													"/>
						<polygon id="XMLID_1393_" style="opacity:0.2;" points="312.81,170.653 306.787,167.167 298.135,172.162 304.159,175.648 
													"/>
					</g>
					<g id="XMLID_2099_">
						<polygon id="XMLID_1528_" style="fill:#27DEBF;" points="298.135,178.368 304.159,181.854 298.126,185.337 292.102,181.851 
													"/>
						<polygon id="XMLID_1918_" style="opacity:0.2;" points="298.135,178.368 304.159,181.854 298.126,185.337 292.102,181.851 
													"/>
					</g>
					<g id="XMLID_2086_">
						<polygon id="XMLID_1919_" style="fill:#27DEBF;" points="292.102,193.385 298.126,196.872 298.126,185.337 292.102,181.851 
													"/>
						<polygon id="XMLID_1930_" style="opacity:0.35;" points="292.102,193.385 298.126,196.872 298.126,185.337 292.102,181.851 
													"/>
					</g>
					<g id="XMLID_2080_">
						<polygon id="XMLID_1935_" style="fill:#27DEBF;" points="298.135,172.162 298.135,178.368 304.159,181.854 304.159,175.648 
													"/>
						<polygon id="XMLID_1942_" style="opacity:0.35;" points="298.135,172.162 298.135,178.368 304.159,181.854 304.159,175.648 
													"/>
					</g>
					<g id="XMLID_2079_">
						<polygon id="XMLID_1944_" style="fill:#27DEBF;" points="309.796,165.43 309.796,168.909 312.81,170.653 312.81,176.859 
							315.819,175.122 315.819,168.916 						"/>
						<polygon id="XMLID_1945_" style="opacity:0.35;" points="309.796,165.43 309.796,168.909 312.81,170.653 312.81,176.859 
							315.819,175.122 315.819,168.916 						"/>
					</g>
					<g id="XMLID_2047_">
						<polygon id="XMLID_1946_" style="fill:#27DEBF;" points="292.102,229.095 298.126,232.581 302.229,230.212 296.206,226.726 
													"/>
						<polygon id="XMLID_1948_" style="opacity:0.2;" points="292.102,229.095 298.126,232.581 302.229,230.212 296.206,226.726 
													"/>
					</g>
					<g id="XMLID_2001_">
						<polygon id="XMLID_1988_" style="fill:#27DEBF;" points="296.206,226.726 302.229,230.212 302.229,194.503 298.126,196.872 
							296.206,195.76 						"/>
						<polygon id="XMLID_1952_" style="opacity:0.45;" points="296.206,226.726 302.229,230.212 302.229,194.503 298.126,196.872 
							296.206,195.76 						"/>
					</g>
					<g id="XMLID_1960_">
						<polygon id="XMLID_2002_" style="fill:#27DEBF;" points="292.102,229.095 298.126,232.581 298.126,244.115 292.102,240.629 
													"/>
						<polygon id="XMLID_2022_" style="opacity:0.35;" points="292.102,229.095 298.126,232.581 298.126,244.115 292.102,240.629 
													"/>
					</g>
					<g id="XMLID_1956_">
						<polygon id="XMLID_2036_" style="fill:#27DEBF;" points="304.159,240.632 304.159,245.701 299.769,243.166 						"/>
						<polygon id="XMLID_2027_" style="opacity:0.45;" points="304.159,240.632 304.159,245.701 299.769,243.166 						"/>
					</g>
					<g id="XMLID_1953_">
						<polygon id="XMLID_1955_" style="fill:#27DEBF;" points="315.819,233.899 315.819,238.969 312.81,237.227 312.81,235.637 
													"/>
						<polygon id="XMLID_1949_" style="opacity:0.45;" points="315.819,233.899 315.819,238.969 312.81,237.227 312.81,235.637 
													"/>
					</g>
					<g id="XMLID_1951_">
						<path id="XMLID_1964_" style="fill:#27DEBF;" d="M327.273,169.29c0.366-0.059,0.726-0.099,1.075-0.104
							c1.187-0.031,2.292,0.235,3.264,0.757l-5.852-3.397l0,0c-0.41-0.24-0.835-0.421-1.289-0.563v4.205
							c0.564-0.27,1.113-0.47,1.651-0.63c0.278-0.083,0.552-0.149,0.823-0.204C327.055,169.334,327.165,169.307,327.273,169.29z"/>
						<path id="XMLID_1957_" style="opacity:0.2;" d="M327.273,169.29c0.366-0.059,0.726-0.099,1.075-0.104
							c1.187-0.031,2.292,0.235,3.264,0.757l-5.852-3.397l0,0c-0.41-0.24-0.835-0.421-1.289-0.563v4.205
							c0.564-0.27,1.113-0.47,1.651-0.63c0.278-0.083,0.552-0.149,0.823-0.204C327.055,169.334,327.165,169.307,327.273,169.29z"/>
					</g>
					<g id="XMLID_1934_">
						<path id="XMLID_2071_" style="fill:#27DEBF;" d="M329.013,207.892v0.962c0,3.243-1.975,7.039-4.42,8.441l-12.145,7.019
							l-1.565,0.9v-6.957l7.694-4.441c2.404-1.391,4.379-5.116,4.42-8.339l0.532-0.307l1.064-0.624
							C327.039,203.145,329.013,204.649,329.013,207.892z"/>
						<path id="XMLID_1937_" style="opacity:0.45;" d="M329.013,207.892v0.962c0,3.243-1.975,7.039-4.42,8.441l-12.145,7.019
							l-1.565,0.9v-6.957l7.694-4.441c2.404-1.391,4.379-5.116,4.42-8.339l0.532-0.307l1.064-0.624
							C327.039,203.145,329.013,204.649,329.013,207.892z"/>
					</g>
					<g id="XMLID_1411_">
						<path id="XMLID_2152_" style="fill:#27DEBF;" d="M327.479,185.189v0.9c0,2.906-1.77,6.282-3.949,7.541l-12.646,7.305v-6.968
							l6.62-3.816c1.975-1.146,3.622-4.031,3.898-6.722l2.128-1.228C325.709,180.953,327.479,182.283,327.479,185.189z"/>
						<path id="XMLID_1408_" style="opacity:0.45;" d="M327.479,185.189v0.9c0,2.906-1.77,6.282-3.949,7.541l-12.646,7.305v-6.968
							l6.62-3.816c1.975-1.146,3.622-4.031,3.898-6.722l2.128-1.228C325.709,180.953,327.479,182.283,327.479,185.189z"/>
					</g>
				</g>
				<g id="XMLID_2043_">
					<path id="XMLID_2250_" style="fill:#27DEBF;" d="M333.587,192.641c1.663-3.899,2.541-7.884,2.541-11.544v-0.904
						c0-8.778-5.107-13.131-11.656-9.999v-6.273l-8.652,4.995v6.206l-3.009,1.737v-6.206l-8.652,4.995v6.206l-6.033,3.483v11.534
						l4.103-2.369v35.709l-4.103,2.369v11.534l6.033-3.483v5.069l8.652-4.995v-5.069l3.009-1.737v5.069l8.652-4.995v-5.069
						l0.126-0.073c7.207-4.161,13.072-15.364,13.072-24.976v-0.956C337.669,198.159,336.184,194.432,333.587,192.641z
						 M327.476,185.188v0.904c0,2.901-1.77,6.283-3.946,7.539l-12.65,7.303v-11.428l1.566-0.904l11.083-6.399
						C325.706,180.948,327.476,182.286,327.476,185.188z M310.88,212.471l12.65-7.303l1.067-0.616
						c2.438-1.408,4.42,0.092,4.42,3.343v0.956c0,3.251-1.982,7.04-4.42,8.447l-12.15,7.015l-1.566,0.904V212.471z"/>
					<g id="XMLID_1375_">
						<path id="XMLID_2145_" style="opacity:0.3;fill:#FFFFFF;" d="M324.471,170.194v-3.271l-1.903-1.903l-5.812,3.355
							l18.661,18.661c0.465-2.029,0.71-4.029,0.71-5.939v-0.904c0-0.582-0.026-1.141-0.069-1.684l-9.153-9.153
							C326.122,169.519,325.309,169.793,324.471,170.194z"/>
						<path id="XMLID_2146_" style="opacity:0.3;fill:#FFFFFF;" d="M327.468,184.986c0.002,0.068,0.008,0.132,0.008,0.202v0.904
							c0,2.901-1.77,6.283-3.946,7.539l-3.113,1.798l16.125,16.125c0.719-2.573,1.127-5.19,1.127-7.699v-0.956
							c0-4.74-1.485-8.468-4.082-10.258c0.156-0.365,0.297-0.731,0.439-1.097L327.468,184.986z"/>
						<polygon id="XMLID_2147_" style="opacity:0.3;fill:#FFFFFF;" points="314.486,223.135 312.447,224.313 310.88,225.217 
							310.88,219.53 302.229,210.879 302.229,226.992 312.81,237.573 312.81,235.637 315.819,233.899 315.819,238.969 
							324.471,233.974 324.471,233.121 						"/>
						<path id="XMLID_2148_" style="opacity:0.25;fill:#FFFFFF;" d="M313.172,188.184l10.358-5.98
							c0.275-0.159,0.543-0.275,0.802-0.353l-8.513-8.513v1.784l-3.009,1.738v-6.206l-8.652,4.995v3.523L313.172,188.184z"/>
					</g>
				</g>
				<g id="XMLID_2063_">
					<path id="XMLID_2160_" style="fill:#F5F5F5;" d="M302.229,194.502v35.708c0.101-1.488,0.15-2.975,0.222-4.462
						c0.067-1.488,0.09-2.976,0.137-4.464c0.092-2.976,0.132-5.952,0.141-8.927c0.02-2.976,0.005-5.952-0.037-8.927
						c-0.014-1.488-0.047-2.976-0.095-4.464l-0.132-4.464l-0.012-0.425l-0.342,0.221c-1.328,0.858-2.672,1.69-3.985,2.574
						L302.229,194.502z"/>
					<path id="XMLID_2184_" style="fill:#F5F5F5;" d="M306.466,174.65c0.758-0.353,1.501-0.729,2.24-1.115
						c0.739-0.385,1.47-0.784,2.193-1.197c0.495-0.27,0.978-0.56,1.462-0.849c0.028,0.756,0.054,1.511,0.108,2.267
						c0.044,0.517,0.078,1.034,0.144,1.551c0.061,0.517,0.109,1.034,0.197,1.551v-6.206l-8.651,4.995l0,0
						c0.395-0.148,0.779-0.315,1.162-0.484C305.704,174.995,306.092,174.834,306.466,174.65z"/>
					<path id="XMLID_2183_" style="fill:#F5F5F5;" d="M318.127,167.917c0.757-0.353,1.501-0.73,2.24-1.114
						c1.242-0.642,2.451-1.34,3.653-2.051c0.028,0.768,0.054,1.535,0.108,2.303c0.045,0.522,0.078,1.045,0.144,1.567
						c0.061,0.522,0.109,1.045,0.198,1.567l0-0.002v-6.266l-8.652,4.995c0.395-0.148,0.779-0.316,1.162-0.485
						C317.365,168.262,317.752,168.101,318.127,167.917z"/>
					<path id="XMLID_2179_" style="fill:#F5F5F5;" d="M327.476,185.188v0.904c0,2.901-1.77,6.283-3.946,7.539l-12.634,7.294
						c-0.002,0.001-0.013,0.009-0.013,0.009s0.433-0.208,1.192-0.573c0.747-0.384,1.836-0.896,3.104-1.576
						c1.268-0.681,2.765-1.445,4.337-2.318c0.786-0.438,1.597-0.89,2.422-1.349c0.41-0.234,0.824-0.469,1.239-0.705l0.625-0.357
						c0.222-0.141,0.451-0.277,0.65-0.444c0.823-0.646,1.445-1.462,1.963-2.304c0.515-0.847,0.87-1.759,1.122-2.661
						c0.255-0.885,0.353-1.853,0.312-2.681c-0.026-0.804-0.041-1.658-0.295-2.384c-0.235-0.727-0.671-1.363-1.242-1.673
						c-0.559-0.326-1.143-0.338-1.563-0.247c-0.426,0.089-0.732,0.25-0.925,0.36c-0.192,0.118-0.295,0.18-0.295,0.18
						s0.024-0.01,0.034-0.014C325.724,180.964,327.476,182.301,327.476,185.188z"/>
					<path id="XMLID_2164_" style="fill:#F5F5F5;" d="M329.385,208.631c-0.015-0.886-0.056-1.831-0.348-2.618
						c-0.26-0.798-0.762-1.475-1.387-1.805c-0.614-0.349-1.253-0.355-1.713-0.253c-0.466,0.102-0.804,0.274-1.017,0.395
						c-0.213,0.128-0.326,0.196-0.326,0.196s0.034-0.014,0.072-0.03c2.406-1.34,4.352,0.158,4.352,3.378v0.956
						c0,3.251-1.982,7.04-4.42,8.447l-12.15,7.015l-1.549,0.894c0.037-0.018,0.496-0.242,1.294-0.631
						c0.822-0.426,2.015-0.999,3.409-1.752c1.394-0.754,3.038-1.603,4.767-2.567c0.864-0.483,1.757-0.982,2.665-1.49
						c0.894-0.544,1.83-0.956,2.757-1.694c1.709-1.498,2.752-3.519,3.277-5.502C329.343,210.592,329.425,209.542,329.385,208.631z"
						/>
					<path id="XMLID_2163_" style="fill:#F5F5F5;" d="M337.669,203.855v-0.956c0-4.74-1.485-8.467-4.082-10.258l0,0
						c0,0,0.124,0.106,0.356,0.304c0.23,0.2,0.538,0.525,0.9,0.955c0.709,0.877,1.476,2.318,1.931,4.183
						c0.232,0.93,0.386,1.962,0.448,3.059c0.057,1.074,0.03,2.289-0.032,3.475c-0.024,0.6-0.058,1.208-0.15,1.82
						c-0.068,0.614-0.149,1.234-0.273,1.853c-0.101,0.623-0.225,1.246-0.39,1.865c-0.138,0.624-0.307,1.243-0.505,1.854
						c-0.169,0.62-0.37,1.229-0.595,1.829c-0.203,0.607-0.437,1.2-0.691,1.78c-0.235,0.588-0.492,1.16-0.765,1.717
						c-0.255,0.566-0.531,1.113-0.828,1.638c-0.279,0.535-0.573,1.05-0.878,1.544c-0.296,0.499-0.583,0.991-0.906,1.441
						c-0.604,0.929-1.255,1.75-1.862,2.503c-0.639,0.726-1.221,1.396-1.793,1.939c-0.539,0.582-1.095,0.979-1.517,1.363
						c-0.905,0.692-1.44,1.069-1.44,1.069C331.804,224.671,337.669,213.467,337.669,203.855z"/>
					<path id="XMLID_2156_" style="fill:#F5F5F5;" d="M308.255,242.807c-1.407,0.893-2.793,1.823-4.096,2.894l8.651-4.995v-5.069
						c-0.265,1.596-0.379,3.193-0.449,4.789C310.965,241.17,309.593,241.96,308.255,242.807z"/>
					<path id="XMLID_2157_" style="fill:#F5F5F5;" d="M324.471,228.905C324.471,228.905,324.471,228.905,324.471,228.905
						c-0.23,1.6-0.333,3.202-0.415,4.803c-1.416,0.727-2.796,1.516-4.148,2.354c-1.411,0.886-2.794,1.82-4.089,2.908l8.652-4.995
						V228.905z"/>
				</g>
			</g>
		</g>
	</g>
</g>
</svg>
