<?xml version="1.0" standalone="no"?>
<!DOCTYPE svg PUBLIC "-//W3C//DTD SVG 20010904//EN"
 "http://www.w3.org/TR/2001/REC-SVG-20010904/DTD/svg10.dtd">
<svg version="1.0" xmlns="http://www.w3.org/2000/svg"
 width="512.000000pt" height="512.000000pt" viewBox="0 0 512.000000 512.000000"
 preserveAspectRatio="xMidYMid meet">

<g transform="translate(0.000000,512.000000) scale(0.100000,-0.100000)"
fill="#000000" stroke="none">
<path d="M2360 4945 c-280 -46 -491 -156 -695 -360 -95 -95 -154 -169 -217
-275 -11 -19 -51 -40 -142 -79 -133 -56 -157 -75 -177 -141 -16 -52 -4 -104
33 -146 l31 -35 -26 -87 c-58 -190 -78 -342 -77 -582 0 -204 15 -333 55 -473
l25 -87 -21 -29 c-64 -87 -8 -226 100 -247 l31 -7 0 -171 0 -171 -68 -27
c-221 -90 -455 -277 -614 -492 -250 -337 -385 -744 -433 -1303 l-6 -73 60 0
60 0 5 43 c3 23 10 94 16 157 15 159 62 387 111 538 133 409 340 704 629 897
92 61 220 129 228 120 2 -2 -3 -25 -12 -52 -8 -26 -22 -79 -30 -118 -16 -79
-9 -105 30 -105 29 0 34 11 64 140 12 52 28 107 36 122 l14 27 48 -24 c157
-81 546 -111 1292 -102 549 7 838 28 1083 76 48 10 87 15 87 13 0 -2 -13 -20
-30 -39 -16 -18 -30 -40 -30 -48 0 -17 27 -45 43 -45 7 0 42 33 78 73 37 40
102 100 146 133 l79 61 68 -47 c37 -26 98 -74 136 -108 71 -64 200 -217 200
-238 0 -6 -19 -14 -42 -18 -76 -12 -112 -54 -73 -86 12 -10 28 -9 80 4 35 9
70 16 78 16 30 0 119 -238 155 -415 42 -199 71 -559 72 -862 l0 -113 60 0 60
0 0 138 c0 548 -68 970 -200 1247 -92 193 -267 401 -443 525 l-77 54 0 711 c0
408 -4 748 -10 800 -82 733 -535 1186 -1300 1300 -152 22 -463 28 -570 10z
m547 -130 c585 -84 971 -378 1132 -860 75 -227 81 -309 81 -1149 l0 -714 -49
-31 c-125 -81 -381 -132 -801 -161 -395 -27 -1223 -22 -1517 10 -136 15 -259
46 -313 78 l-45 27 105 5 c111 6 146 17 188 63 30 32 43 88 30 134 -22 79
-143 168 -263 193 -30 6 -55 15 -55 20 0 5 325 11 748 13 719 3 750 4 832 24
281 70 522 202 686 376 70 74 74 77 119 77 64 0 104 20 153 75 137 155 137
495 0 650 -46 52 -89 75 -141 75 -27 0 -43 10 -87 56 -30 31 -103 96 -162 144
-394 324 -806 479 -1275 480 -188 0 -351 -21 -544 -69 l-149 -37 17 25 c138
216 389 403 636 475 163 47 433 56 674 21z m-449 -506 c405 -44 769 -211 1105
-509 l84 -75 -45 -11 -46 -12 -56 51 c-185 169 -444 322 -681 401 -205 68
-286 80 -549 81 -201 0 -252 -4 -351 -22 -160 -31 -339 -84 -502 -151 -146
-59 -168 -61 -175 -13 -4 23 5 28 192 103 181 72 430 134 626 157 109 12 286
13 398 0z m25 -164 c356 -47 649 -186 976 -464 l35 -29 -32 -59 c-82 -156 -84
-376 -3 -536 l30 -57 -58 -49 c-131 -108 -287 -186 -479 -239 l-97 -26 -777
-4 -777 -3 -30 94 c-49 154 -64 290 -58 527 3 125 11 239 21 293 22 117 61
247 91 307 24 48 25 48 152 98 357 139 693 188 1006 147z m1136 -558 c-41 -76
-59 -157 -59 -267 0 -110 18 -191 59 -267 16 -29 27 -53 24 -53 -25 0 -78 40
-98 74 -78 135 -78 357 0 492 20 34 71 73 97 74 3 0 -7 -24 -23 -53z m-30
-658 c17 -6 31 -15 31 -19 0 -13 -140 -130 -210 -175 -99 -64 -181 -103 -309
-145 -168 -56 -282 -70 -575 -70 l-246 0 0 40 0 40 264 0 c193 0 287 4 352 15
212 37 434 141 593 277 63 54 57 52 100 37z m-1869 -369 l0 -40 -224 0 c-191
0 -227 2 -240 16 -9 8 -16 19 -16 24 0 5 7 16 16 24 13 14 49 16 240 16 l224
0 0 -40z m160 0 l0 -40 -40 0 -40 0 0 40 0 40 40 0 40 0 0 -40z m160 0 l0 -40
-40 0 -40 0 0 40 0 40 40 0 40 0 0 -40z m160 0 l0 -40 -40 0 -40 0 0 40 0 40
40 0 40 0 0 -40z m-695 -252 c51 -20 106 -60 121 -89 39 -77 -4 -119 -123
-119 -108 0 -103 -6 -103 125 l0 113 38 -9 c20 -6 51 -15 67 -21z"/>
<path d="M3168 2405 c-159 -44 -256 -141 -246 -247 9 -93 88 -142 228 -140
192 1 350 96 367 219 10 74 -41 143 -126 172 -44 14 -163 13 -223 -4z m207
-79 c164 -69 -30 -240 -254 -224 -112 8 -150 64 -90 133 74 83 250 130 344 91z"/>
<path d="M3109 2264 c-10 -12 -10 -22 -1 -48 7 -18 12 -42 12 -53 0 -31 34
-57 58 -44 25 14 34 49 22 91 -18 62 -62 89 -91 54z"/>
<path d="M2061 4080 c-121 -67 -217 -145 -391 -319 -165 -166 -263 -289 -321
-403 -32 -64 -36 -90 -14 -108 26 -22 49 -6 83 59 95 185 322 438 542 605 51
39 134 90 205 126 33 17 43 43 25 65 -20 24 -50 18 -129 -25z"/>
<path d="M1620 3943 c-132 -124 -300 -320 -300 -350 0 -25 34 -48 54 -36 7 4
47 49 88 98 41 50 129 142 195 206 66 64 124 122 127 128 11 18 -13 51 -37 51
-15 0 -59 -34 -127 -97z"/>
<path d="M1460 2248 c-12 -19 -20 -51 -20 -76 0 -35 4 -44 23 -51 34 -13 57 4
57 44 0 18 5 37 10 40 16 10 12 62 -6 69 -30 12 -44 6 -64 -26z"/>
<path d="M3753 1708 c-20 -25 -61 -114 -87 -191 -28 -83 -25 -117 13 -117 25
0 38 17 61 86 11 32 35 89 52 127 24 52 29 73 21 85 -13 22 -47 27 -60 10z"/>
<path d="M1201 1543 c-12 -23 -31 -285 -31 -426 l0 -102 -46 80 c-57 100 -63
107 -87 103 -46 -7 -42 -30 26 -169 96 -193 97 -201 97 -563 l0 -306 40 0 40
0 0 308 c0 169 5 446 12 617 7 171 12 346 13 390 0 79 0 80 -27 83 -18 2 -30
-3 -37 -15z"/>
<path d="M1619 1543 c-59 -36 -59 -39 -59 -423 0 -386 0 -388 60 -424 25 -14
87 -16 580 -16 493 0 555 2 580 16 60 36 60 38 60 424 0 386 0 388 -60 424
-25 14 -87 16 -582 16 -493 -1 -556 -2 -579 -17z m181 -225 c0 -137 3 -169 19
-203 42 -91 97 -115 264 -115 146 0 192 17 242 88 l30 44 3 174 3 174 64 0
c101 0 95 21 95 -360 0 -285 -2 -331 -16 -344 -13 -14 -66 -16 -424 -16 -358
0 -411 2 -424 16 -14 13 -16 59 -16 344 0 382 -6 360 96 360 l64 0 0 -162z
m480 12 c0 -169 -8 -197 -63 -230 -47 -29 -227 -29 -274 0 -55 33 -63 61 -63
230 l0 150 200 0 200 0 0 -150z m464 134 c14 -13 16 -59 16 -344 0 -382 6
-360 -96 -360 l-64 0 0 360 0 360 64 0 c45 0 69 -5 80 -16z"/>
<path d="M2019 1383 c-78 -48 -77 -160 1 -207 78 -45 180 14 180 104 0 91
-105 150 -181 103z"/>
<path d="M4280 1536 c-175 -74 -230 -115 -200 -151 18 -22 32 -19 133 29 51
24 114 53 140 65 43 18 48 24 45 48 -2 23 -8 28 -33 30 -16 2 -55 -8 -85 -21z"/>
<path d="M772 1498 c-21 -21 -13 -45 36 -100 26 -29 67 -77 91 -106 46 -55 73
-64 95 -30 14 23 -2 49 -96 158 -77 88 -101 103 -126 78z"/>
<path d="M3892 1294 c-88 -81 -108 -118 -77 -141 28 -19 33 -17 83 35 26 26
69 66 96 89 42 35 48 44 42 67 -5 20 -13 26 -35 26 -21 0 -48 -19 -109 -76z"/>
<path d="M3611 1298 c-27 -73 -51 -465 -51 -845 l0 -293 40 0 40 0 0 188 c0
309 24 445 110 620 51 103 56 134 24 146 -26 10 -49 -10 -83 -71 l-32 -58 6
90 c3 50 10 118 16 153 9 48 8 66 -1 77 -19 23 -59 19 -69 -7z"/>
</g>
</svg>
